<mxfile host="app.diagrams.net" agent="Mozilla/5.0 (Windows NT 10.0; Win64; x64) AppleWebKit/537.36 (KHTML, like Gecko) Chrome/136.0.0.0 Safari/537.36" version="27.1.1">
  <diagram id="Ht1M8jgEwFfnCIfOTk4-" name="Page-1">
    <mxGraphModel dx="2066" dy="1903" grid="0" gridSize="10" guides="1" tooltips="1" connect="1" arrows="1" fold="1" page="0" pageScale="1" pageWidth="1169" pageHeight="827" math="0" shadow="0">
      <root>
        <mxCell id="0" />
        <mxCell id="1" parent="0" />
        <mxCell id="bMmaYWXWFNeqYN8dCqb4-5" value="AWS Account" style="points=[[0,0],[0.25,0],[0.5,0],[0.75,0],[1,0],[1,0.25],[1,0.5],[1,0.75],[1,1],[0.75,1],[0.5,1],[0.25,1],[0,1],[0,0.75],[0,0.5],[0,0.25]];outlineConnect=0;html=1;whiteSpace=wrap;container=1;pointerEvents=0;collapsible=0;recursiveResize=0;shape=mxgraph.aws4.group;grIcon=mxgraph.aws4.group_account;strokeColor=#23445d;fillColor=#bac8d3;verticalAlign=top;align=left;spacingLeft=30;dashed=1;" parent="1" vertex="1">
          <mxGeometry x="40" y="-800" width="1150" height="694" as="geometry" />
        </mxCell>
        <mxCell id="GoNHpHUdfLya2WgGOw5J-3" value="US-EAST-1" style="sketch=0;outlineConnect=0;gradientColor=none;html=1;whiteSpace=wrap;fontSize=12;fontStyle=0;shape=mxgraph.aws4.group;grIcon=mxgraph.aws4.group_region;strokeColor=#67AB9F;fillColor=#E2EEEC;verticalAlign=top;align=left;spacingLeft=30;fontColor=#879196;" parent="bMmaYWXWFNeqYN8dCqb4-5" vertex="1">
          <mxGeometry x="27" y="36" width="1099" height="536" as="geometry" />
        </mxCell>
        <mxCell id="GoNHpHUdfLya2WgGOw5J-1" value="SCTP-CE9-Grp1-VPC" style="sketch=0;outlineConnect=0;html=1;whiteSpace=wrap;fontSize=12;fontStyle=0;shape=mxgraph.aws4.group;grIcon=mxgraph.aws4.group_vpc;strokeColor=#b46504;fillColor=#fad7ac;verticalAlign=top;align=left;spacingLeft=30;dashed=0;" parent="bMmaYWXWFNeqYN8dCqb4-5" vertex="1">
          <mxGeometry x="69.5" y="70" width="931.5" height="456" as="geometry" />
        </mxCell>
        <mxCell id="GoNHpHUdfLya2WgGOw5J-5" value="Private subnet" style="points=[[0,0],[0.25,0],[0.5,0],[0.75,0],[1,0],[1,0.25],[1,0.5],[1,0.75],[1,1],[0.75,1],[0.5,1],[0.25,1],[0,1],[0,0.75],[0,0.5],[0,0.25]];outlineConnect=0;gradientColor=none;html=1;whiteSpace=wrap;fontSize=12;fontStyle=0;container=1;pointerEvents=0;collapsible=0;recursiveResize=0;shape=mxgraph.aws4.group;grIcon=mxgraph.aws4.group_security_group;grStroke=0;strokeColor=#00A4A6;fillColor=#E6F6F7;verticalAlign=top;align=left;spacingLeft=30;fontColor=#147EBA;dashed=0;" parent="bMmaYWXWFNeqYN8dCqb4-5" vertex="1">
          <mxGeometry x="285" y="97" width="694" height="407" as="geometry" />
        </mxCell>
        <mxCell id="uAd7L6xz1dplvV16aioT-5" style="edgeStyle=orthogonalEdgeStyle;rounded=0;orthogonalLoop=1;jettySize=auto;html=1;startArrow=classic;startFill=1;strokeColor=#FF0000;strokeWidth=2;" parent="bMmaYWXWFNeqYN8dCqb4-5" source="GoNHpHUdfLya2WgGOw5J-10" target="GoNHpHUdfLya2WgGOw5J-15" edge="1">
          <mxGeometry relative="1" as="geometry">
            <Array as="points">
              <mxPoint x="575" y="534" />
            </Array>
          </mxGeometry>
        </mxCell>
        <mxCell id="UvF73-Ho9JUrgIxbKxk_-35" style="edgeStyle=orthogonalEdgeStyle;rounded=0;orthogonalLoop=1;jettySize=auto;html=1;strokeColor=#007FFF;strokeWidth=2;" parent="bMmaYWXWFNeqYN8dCqb4-5" source="GoNHpHUdfLya2WgGOw5J-10" target="GoNHpHUdfLya2WgGOw5J-9" edge="1">
          <mxGeometry relative="1" as="geometry" />
        </mxCell>
        <mxCell id="UvF73-Ho9JUrgIxbKxk_-37" value="&amp;nbsp;Passed Staging&amp;nbsp;" style="edgeLabel;html=1;align=center;verticalAlign=middle;resizable=0;points=[];spacingLeft=0;spacingTop=0;fontFamily=Helvetica;fontSize=12;fontColor=default;labelBorderColor=#007FFF;labelBackgroundColor=default;fillColor=none;gradientColor=none;" parent="UvF73-Ho9JUrgIxbKxk_-35" vertex="1" connectable="0">
          <mxGeometry x="-0.1062" y="1" relative="1" as="geometry">
            <mxPoint as="offset" />
          </mxGeometry>
        </mxCell>
        <mxCell id="GoNHpHUdfLya2WgGOw5J-10" value="Internet gateway" style="sketch=0;outlineConnect=0;gradientColor=#ffd966;strokeColor=#d6b656;fillColor=#fff2cc;dashed=0;verticalLabelPosition=bottom;verticalAlign=top;align=center;html=1;fontSize=12;fontStyle=0;aspect=fixed;shape=mxgraph.aws4.resourceIcon;resIcon=mxgraph.aws4.internet_gateway;points=[[0.98,0.29,0,0,0]];" parent="bMmaYWXWFNeqYN8dCqb4-5" vertex="1">
          <mxGeometry x="1023" y="464" width="80" height="80" as="geometry" />
        </mxCell>
        <mxCell id="UvF73-Ho9JUrgIxbKxk_-3" value="" style="group" parent="bMmaYWXWFNeqYN8dCqb4-5" vertex="1" connectable="0">
          <mxGeometry x="97" y="168" width="159" height="179" as="geometry" />
        </mxCell>
        <mxCell id="GoNHpHUdfLya2WgGOw5J-6" value="Public subnet" style="points=[[0,0],[0.25,0],[0.5,0],[0.75,0],[1,0],[1,0.25],[1,0.5],[1,0.75],[1,1],[0.75,1],[0.5,1],[0.25,1],[0,1],[0,0.75],[0,0.5],[0,0.25]];outlineConnect=0;gradientColor=none;html=1;whiteSpace=wrap;fontSize=12;fontStyle=0;container=1;pointerEvents=0;collapsible=0;recursiveResize=0;shape=mxgraph.aws4.group;grIcon=mxgraph.aws4.group_security_group;grStroke=0;strokeColor=#7AA116;fillColor=#F2F6E8;verticalAlign=top;align=left;spacingLeft=30;fontColor=#248814;dashed=0;" parent="UvF73-Ho9JUrgIxbKxk_-3" vertex="1">
          <mxGeometry width="159" height="179" as="geometry" />
        </mxCell>
        <mxCell id="GoNHpHUdfLya2WgGOw5J-7" value="Elastic Load Balancing" style="sketch=0;outlineConnect=0;fontColor=#232F3E;gradientColor=none;strokeColor=#ffffff;fillColor=#232F3E;dashed=0;verticalLabelPosition=middle;verticalAlign=bottom;align=center;html=1;whiteSpace=wrap;fontSize=10;fontStyle=1;spacing=3;shape=mxgraph.aws4.productIcon;prIcon=mxgraph.aws4.elastic_load_balancing;" parent="UvF73-Ho9JUrgIxbKxk_-3" vertex="1">
          <mxGeometry x="39.24683544303797" y="34.5" width="80.50632911392405" height="110" as="geometry" />
        </mxCell>
        <mxCell id="GoNHpHUdfLya2WgGOw5J-18" style="edgeStyle=orthogonalEdgeStyle;rounded=0;orthogonalLoop=1;jettySize=auto;html=1;strokeColor=#FF0000;strokeWidth=2;startArrow=classic;startFill=1;" parent="bMmaYWXWFNeqYN8dCqb4-5" source="GoNHpHUdfLya2WgGOw5J-7" target="GoNHpHUdfLya2WgGOw5J-10" edge="1">
          <mxGeometry relative="1" as="geometry">
            <mxPoint x="213.5" y="437" as="targetPoint" />
            <Array as="points">
              <mxPoint x="175" y="513" />
            </Array>
          </mxGeometry>
        </mxCell>
        <mxCell id="GoNHpHUdfLya2WgGOw5J-15" value="&lt;span&gt;Route 53&lt;/span&gt;" style="sketch=0;points=[[0,0,0],[0.25,0,0],[0.5,0,0],[0.75,0,0],[1,0,0],[0,1,0],[0.25,1,0],[0.5,1,0],[0.75,1,0],[1,1,0],[0,0.25,0],[0,0.5,0],[0,0.75,0],[1,0.25,0],[1,0.5,0],[1,0.75,0]];outlineConnect=0;fontColor=#232F3E;fillColor=#8C4FFF;strokeColor=#ffffff;dashed=0;verticalLabelPosition=bottom;verticalAlign=top;align=center;html=1;fontSize=12;fontStyle=0;aspect=fixed;shape=mxgraph.aws4.resourceIcon;resIcon=mxgraph.aws4.route_53;" parent="bMmaYWXWFNeqYN8dCqb4-5" vertex="1">
          <mxGeometry x="536" y="588" width="78" height="78" as="geometry" />
        </mxCell>
        <mxCell id="uAd7L6xz1dplvV16aioT-40" value="" style="rounded=0;whiteSpace=wrap;html=1;gradientColor=none;fillColor=none;dashed=1;strokeWidth=2;movable=1;resizable=1;rotatable=1;deletable=1;editable=1;locked=0;connectable=1;align=left;spacingBottom=-250;spacingLeft=7;dashPattern=12 12;" parent="bMmaYWXWFNeqYN8dCqb4-5" vertex="1">
          <mxGeometry x="304" y="128" width="653" height="366" as="geometry" />
        </mxCell>
        <mxCell id="GoNHpHUdfLya2WgGOw5J-8" value="Amazon EKS" style="sketch=0;outlineConnect=0;fontColor=#232F3E;gradientColor=none;strokeColor=#ffffff;fillColor=#232F3E;dashed=0;verticalLabelPosition=middle;verticalAlign=bottom;align=center;html=1;whiteSpace=wrap;fontSize=10;fontStyle=1;spacing=3;shape=mxgraph.aws4.productIcon;prIcon=mxgraph.aws4.eks;" parent="bMmaYWXWFNeqYN8dCqb4-5" vertex="1">
          <mxGeometry x="311" y="135" width="50" height="76" as="geometry" />
        </mxCell>
        <mxCell id="UvF73-Ho9JUrgIxbKxk_-92" style="edgeStyle=orthogonalEdgeStyle;rounded=0;orthogonalLoop=1;jettySize=auto;html=1;entryX=0.998;entryY=0.685;entryDx=0;entryDy=0;strokeColor=#00FF00;entryPerimeter=0;strokeWidth=2;" parent="bMmaYWXWFNeqYN8dCqb4-5" source="GoNHpHUdfLya2WgGOw5J-9" target="UvF73-Ho9JUrgIxbKxk_-18" edge="1">
          <mxGeometry relative="1" as="geometry">
            <Array as="points">
              <mxPoint x="1063" y="223" />
            </Array>
          </mxGeometry>
        </mxCell>
        <mxCell id="GoNHpHUdfLya2WgGOw5J-9" value="Amazon ECR" style="sketch=0;outlineConnect=0;fontColor=#232F3E;gradientColor=none;strokeColor=#ffffff;fillColor=#232F3E;dashed=0;verticalLabelPosition=middle;verticalAlign=bottom;align=center;html=1;whiteSpace=wrap;fontSize=10;fontStyle=1;spacing=3;shape=mxgraph.aws4.productIcon;prIcon=mxgraph.aws4.ecr;" parent="bMmaYWXWFNeqYN8dCqb4-5" vertex="1">
          <mxGeometry x="1023" y="287" width="80" height="100" as="geometry" />
        </mxCell>
        <mxCell id="uAd7L6xz1dplvV16aioT-25" value="" style="group;fillColor=default;" parent="bMmaYWXWFNeqYN8dCqb4-5" vertex="1" connectable="0">
          <mxGeometry x="764" y="608" width="180" height="180" as="geometry" />
        </mxCell>
        <mxCell id="uAd7L6xz1dplvV16aioT-23" value="&lt;b&gt;&lt;font style=&quot;font-size: 16px;&quot;&gt;Path Legends&lt;/font&gt;&lt;/b&gt;" style="whiteSpace=wrap;html=1;aspect=fixed;labelPosition=center;verticalLabelPosition=top;align=center;verticalAlign=bottom;spacingBottom=0;" parent="uAd7L6xz1dplvV16aioT-25" vertex="1">
          <mxGeometry width="180" height="180" as="geometry" />
        </mxCell>
        <mxCell id="uAd7L6xz1dplvV16aioT-12" value="" style="endArrow=none;html=1;rounded=0;fontSize=14;strokeColor=#FF0000;strokeWidth=3;" parent="uAd7L6xz1dplvV16aioT-25" edge="1">
          <mxGeometry width="50" height="50" relative="1" as="geometry">
            <mxPoint x="9" y="31" as="sourcePoint" />
            <mxPoint x="169" y="31" as="targetPoint" />
          </mxGeometry>
        </mxCell>
        <mxCell id="uAd7L6xz1dplvV16aioT-13" value="GENERAL" style="edgeLabel;html=1;align=center;verticalAlign=middle;resizable=0;points=[];fontSize=14;" parent="uAd7L6xz1dplvV16aioT-12" vertex="1" connectable="0">
          <mxGeometry x="0.4444" relative="1" as="geometry">
            <mxPoint x="-36" as="offset" />
          </mxGeometry>
        </mxCell>
        <mxCell id="uAd7L6xz1dplvV16aioT-15" value="" style="endArrow=none;html=1;rounded=0;fontSize=14;strokeColor=#00FF00;strokeWidth=3;" parent="uAd7L6xz1dplvV16aioT-25" edge="1">
          <mxGeometry width="50" height="50" relative="1" as="geometry">
            <mxPoint x="9" y="71" as="sourcePoint" />
            <mxPoint x="169" y="71" as="targetPoint" />
          </mxGeometry>
        </mxCell>
        <mxCell id="uAd7L6xz1dplvV16aioT-16" value="PRODUCTION" style="edgeLabel;html=1;align=center;verticalAlign=middle;resizable=0;points=[];fontSize=14;" parent="uAd7L6xz1dplvV16aioT-15" vertex="1" connectable="0">
          <mxGeometry x="0.4444" relative="1" as="geometry">
            <mxPoint x="-36" as="offset" />
          </mxGeometry>
        </mxCell>
        <mxCell id="uAd7L6xz1dplvV16aioT-17" value="" style="endArrow=none;html=1;rounded=0;fontSize=14;strokeColor=#007FFF;strokeWidth=3;" parent="uAd7L6xz1dplvV16aioT-25" edge="1">
          <mxGeometry width="50" height="50" relative="1" as="geometry">
            <mxPoint x="9" y="111" as="sourcePoint" />
            <mxPoint x="169" y="111" as="targetPoint" />
          </mxGeometry>
        </mxCell>
        <mxCell id="uAd7L6xz1dplvV16aioT-18" value="STAGING" style="edgeLabel;html=1;align=center;verticalAlign=middle;resizable=0;points=[];fontSize=14;" parent="uAd7L6xz1dplvV16aioT-17" vertex="1" connectable="0">
          <mxGeometry x="0.4444" relative="1" as="geometry">
            <mxPoint x="-36" as="offset" />
          </mxGeometry>
        </mxCell>
        <mxCell id="uAd7L6xz1dplvV16aioT-19" value="" style="endArrow=none;html=1;rounded=0;fontSize=14;strokeColor=#00FFFF;strokeWidth=3;" parent="uAd7L6xz1dplvV16aioT-25" edge="1">
          <mxGeometry width="50" height="50" relative="1" as="geometry">
            <mxPoint x="9" y="151" as="sourcePoint" />
            <mxPoint x="169" y="151" as="targetPoint" />
          </mxGeometry>
        </mxCell>
        <mxCell id="uAd7L6xz1dplvV16aioT-20" value="DEVELOPMENT" style="edgeLabel;html=1;align=center;verticalAlign=middle;resizable=0;points=[];fontSize=14;" parent="uAd7L6xz1dplvV16aioT-19" vertex="1" connectable="0">
          <mxGeometry x="0.4444" relative="1" as="geometry">
            <mxPoint x="-36" as="offset" />
          </mxGeometry>
        </mxCell>
        <mxCell id="UvF73-Ho9JUrgIxbKxk_-26" style="edgeStyle=orthogonalEdgeStyle;rounded=0;orthogonalLoop=1;jettySize=auto;html=1;strokeWidth=2;startArrow=classic;startFill=1;strokeColor=#FF0000;" parent="bMmaYWXWFNeqYN8dCqb4-5" source="UvF73-Ho9JUrgIxbKxk_-4" target="GoNHpHUdfLya2WgGOw5J-7" edge="1">
          <mxGeometry relative="1" as="geometry" />
        </mxCell>
        <mxCell id="UvF73-Ho9JUrgIxbKxk_-4" value="&lt;p style=&quot;margin:0px;margin-top:4px;text-align:center;&quot;&gt;&lt;b&gt;Microservices Namespace&lt;/b&gt;&lt;/p&gt;" style="shape=rect;align=left;html=1;overflow=fill;whiteSpace=wrap;recursiveResize=0;dashed=1;dashPattern=8 8;fillColor=#f8cecc;strokeColor=#b85450;strokeWidth=2;" parent="bMmaYWXWFNeqYN8dCqb4-5" vertex="1">
          <mxGeometry x="324" y="222.5" width="139" height="252.5" as="geometry" />
        </mxCell>
        <mxCell id="UvF73-Ho9JUrgIxbKxk_-11" value="CD&lt;div&gt;Automation&lt;/div&gt;" style="strokeColor=inherit;fillColor=inherit;gradientColor=inherit;shape=rect;html=1;fontStyle=1;whiteSpace=wrap;align=center;spacingLeft=34;" parent="UvF73-Ho9JUrgIxbKxk_-4" vertex="1">
          <mxGeometry x="16" y="94.5" width="107" height="40" as="geometry" />
        </mxCell>
        <mxCell id="UvF73-Ho9JUrgIxbKxk_-12" value="Ingress&lt;div&gt;Controller&lt;/div&gt;" style="strokeColor=inherit;fillColor=inherit;gradientColor=inherit;shape=rect;html=1;fontStyle=1;whiteSpace=wrap;align=center;" parent="UvF73-Ho9JUrgIxbKxk_-4" vertex="1">
          <mxGeometry x="16" y="42" width="107" height="40" as="geometry" />
        </mxCell>
        <mxCell id="UvF73-Ho9JUrgIxbKxk_-15" value="" style="shape=image;verticalLabelPosition=bottom;labelBackgroundColor=default;verticalAlign=top;aspect=fixed;imageAspect=0;image=data:image/png,iVBORw0KGgoAAAANSUhEUgAAAl8AAAGnCAYAAACJljL0AAAACXBIWXMAAAsTAAALEwEAmpwYAAAAeGVYSWZNTQAqAAAACAAFARIAAwAAAAEAAQAAARoABQAAAAEAAABKARsABQAAAAEAAABSASgAAwAAAAEAAgAAh2kABAAAAAEAAABaAAAAAAAAAEgAAAABAAAASAAAAAEAAqACAAQAAAABAAACX6ADAAQAAAABAAABpwAAAAB/DK5AAAAgAElEQVR4nOzdeZBs21Xn9+/eZ8i55nvfKOmhpydaIITQgBlawiCEGDtw043tpsNt6CYC220T9h8OwnTgocMO+w/7H7vDHTZEA2I0YLrB3bQQCAQakJCE5gnE03tPb7hjDVk5nGHv5T/2yaqsMYfKqlt17/pE3Dfcqso8OVTmL/deZy0jIoJSSimllLoQ9l4fgFJKKaXUg0TDl1JKKaXUBdLwpZRSSil1gTR8KaWUUkpdIA1fSimllFIXSMOXUkoppdQF0vCllFJKKXWBNHwppZRSSl0gDV9KKaWUUhdIw5dSSiml1AXS8KWUUkopdYE0fCmllFJKXSANX0oppZRSF0jDl1JKKaXUBdLwpZRSSil1gTR8KaWUUkpdIA1fSimllFIXSMOXUkoppdQF0vCllFJKKXWBNHwppZRSSl0gDV9KKaWUUhdIw5dSSiml1AXS8KWUUkopdYE0fCmllFJKXSANX0oppZRSF0jDl1JKKaXUBdLwpZRSSil1gTR8KaWUUkpdIA1fSimllFIXSMOXUkoppdQF0vCllFJKKXWBNHwppZRSSl0gDV9KKaWUUhdIw5dSSiml1AXS8KWUUkopdYE0fCmllFJKXSANX0oppZRSF0jDl1JKKaXUBdLwpZRSSil1gTR8KaWUUkpdIA1fSimllFIXSMOXUkoppdQFiu/1ASilHjwigmDwPvxbJPy9MWAQrDFY/WiolLpPafhSSl0IL5AVQlFCXnqcB/Egh77PAMZCHBmSyJAmkEYaxpRS9w8jIodf+5RSamEKJ/QzGOYe5wjpSgAEY8yxP7P3qmTC/0SRoZ4aWjVLHF3IYSul1LnR8KWUOhdZIfQzIcsFDyBhW3EeIoAJRappAu2GJY3nvDCllLrHNHwppRZGRMhK6A+FrBCqzLTY66gus5YYWg1DTUOYUuqK0fCllDozAbJc2B16ijKsVM27yjXLdRogTQyt1FBLzblfp1JKLYKGL6XU3ERgkHn6BeR5eCm56AAkVf1YmlhatRDCrIYwpdQlpuFLKTUz74VhDr0srHTBxYeuw0avZHEM7ZqhUbP3/JiUUuo4Gr6UUlPzAv2hp58JpQt/d9kCzugVLYkNzZqhkWqbCqXU5aLhSyk1kfNV6MoltIvg8oWuw0avbFEEzdTQrFsiDWFKqUtAw5dS6kTOQS8T+rnHX5HQddhemwoLrTSshkXRFbsRSqn7ioYvpdQRpQv1XINMcD6M+7nqwkgjiCJLI4VWzRBrCFNK3QMavpRSe4pS6GWhmN6LLLxH12UhgDVQTw3tuoYwpdTF0vCllKJwsDvwe93oH5QoIoSu+bWaoV23JDq6SCl1ATR8KfUAy0qhP4Ss8Hh5cELXYaOVsFpiadZC93yllDovGr6UesCMRgD1Bp685FxGAF1V46OLmnVDLebE4d9KKTUvDV9KPSAEGGaeXiYXNgLoqhrdN0kcCvPrqTZsVUotjoYvpe5zXmCYCb1cKIp7MwLoqtpr2FrNj6zXdHSRUursNHwpdZ8KcxelWunS0HUW+13zoVWzNGo6xFspNT8NX0rdZ5wXBplc6hFAV9Xe/MgImrXQNV9XwpRSs9LwpdR9wjmhn0M/8zgPaE3XuTkwuqhmQ9d8HV2klJqShi+lrjhXdaPv54LX0HWhxkcXNVNDq2aJtFeYUmoCDV9KXVHjI4Ae5B5dl8WoV1ijZnR0kVLqVBq+lLpiSgfdoSfLHqxu9FfFeNf8Tt0S60qYUuoQDV9KXRF5KfSG8sCNALqq9kJYamjVDWmsj5hSKtDwpdQll5XC7sCTF9qN/ioaPWb1dNQ1Xx9BpR50Gr6UuoREIMtDN3odAXR/GD2GaRzOkKyn2itMqQeVhi+lLpHxEUB5Ed6u9Q36/hJecYU0CWdH1mtGg7VSDxgNX0pdAl5gmIearqIMFV0auu5v+13zQ01YQ1fClHpgaPhS6h5yXshydATQA2w8hDVTqNcMkbbNV+q+puFLqXsgjACCfi6UGroU+w1b48jQTA2NGhrClLpPafhS6gI5D72hZ5CLjgBSxxqFsMgaGim0aoZIG7YqdV/R8KXUBShdGHS9PwJIMJq61ClEQjIfjS5qatd8pe4bGr6UOkelE3aHwjDXEUBqfqPRRfXU0K5rCFPqqtPwpdQ5KKrQlWUej7YSUIsxPrqoXTckGsKUupI0fCm1QHsjgApd6VLnZ7QSVkt0dJFSV5GGL6UWICuF3sCT6QggdYFGz7VaYmg1DGmE1hIqdQVo+FJqTiKQFbLXjV5Dl7pX9kYXJYZWzVBLtGGrUpeZhi+lZhRGAMleY1TRdhHqktgfXWRDCEvB6pNTqUtHw5dSU9obAZQJRaGNUdXlNXpVj2NoV/MjtV+rUpeHhi+lJvAeBpmnn6MjgNSVshfCImjVLI1a6BumlLq3NHwpdYLRCKBe5nEu/J2GLnUVjV7lo6hq2FrX+ZFK3UsavpQ6xHnoDz29vW70GrrO2+hFSO/m8zUaXRS65ltaNXR0kVL3gIYvpSphBBDVCCDRIHDOqtpwjA09qwxhi9fJfjNRDb3nZ9QrrFELZ0hq13ylLo6GL/XAK1xojKojgBbP+RBqcw9lKeQ+NKDNnABCPTUk1iBVHZL3oX1HPxe8C7VKaQS12JLGhlpkiSJILcSRIdL6pTMbH13U0q75Sl0IDV/qgbU/AkjwaOg6K+chd0I/8/QLYViEerncgxiD94KNYsDSrMNyHSD0RxP2X4YMgmDZ7oeaO2MsBhA8riyJIoMRT80amvWIWgytxNBMQ38rLWWaz97ootTQbliS6F4fkVL3Lw1f6oGTl8LuwJMXaOg6AxHIStgZOnq5YbtfUmBxTrBJinhBvMN7hzjwCEagWYf1ZYMxYealrfYeR4+DEHqnCXB7R+gPPab6f4/BYjARWBthbIS1hrLIwyoZQqcR0akZOtXYHQ1jsxmthKWJoV23pPG9PiKl7j8avtQDIyupRgBpN/p5eYFeJmwPPFuZZ1gYSgyWGC8lvnQ4L0QINoYkssQxpFGoKaqlhodXIpKI/ZYHlgOjx/dWwTyUHm7edeQCrhQKH3qslS6ssjkH3oWVy8habBxhTYynJEaox8JqI2KpYWilGsRmMT66qFk31GIdXaTUomj4Uvc1EchyoZfrCKCzGOTC5lC423P0CjAmwePxZYk4j7GQJJZGAvXUkiaGNDKYyBBVxfQi0G4alhqw9yiMvfocOePRhL/d6UN3IJjR5VSX5atAljlPlodaskEhuKIKY5ElimMMFpGcdmpZa1pWG4Z6os+CaY1+Z5IY2nWro4uUWgANX+q+5Eehq5q7iNHQNSsvsNUXbu6WdHODJ0IQXFGC90SJoVkztFJLPbXE8dEC+PFXFwNsLJlQSzTtu7cIuQvbj8cZXYypjtdJeLz7Q08/E4aFx5VgI0uUxFgMFkcnFa61Y1aauho2rdHZqUkSGrbWdSVRqblp+FL3FZHQjX43E8oy/J1+Sp9N4eBu33Gj6+llQhSnlGWOuBC42rVQkF2vRcRjYWvSK0lk4fqynfnx8AK3tj3OT/5eU/1jFMbyIpwAsDv0DDIftkSjiDhOcS6nUzNca0esNSyJ1jZN5cjoolS75is1Kw1f6r4QRgAJvcxTajf6ueQl3N513OoLgzLceUVeENnQgqDTtDTrltjubxlO++IhhPYQG3OEL6nCV+FnX70cXZcIZIVnd+DpDjzDPGymJbUERGhEwvWliPWG0QLzKY2PLmrWDM261ZUwpaak4UtdaaNu9P1cdATQnJyDO33Pi13P0EV47yiLkiQ2dBqG5WZMLQ11PvO+Wpw1fN3eDi0rzvLQjq639NAfOLZ7nsHQ44AkjTHGUreeh5csGy2rPcSmdHB0ka1GF93bY1LqstPwpa4k54R+FgrpvYau+UgIXS91hW5hEC+URUGaGJabluVWRBKHO/WsrxKXIXyNGwXJfu7Z2nX0BmFbM0kTANqJ8MhSKNDX59V0Rs8RW82PbNVCQ1yl1FEavtSVUrpQRD/IBFeNANLT32c3KOD5Lc/tvgdrKbKcJDastiOWm5Y4MWFbcUGvDgIkFq5d8LbjJKNj6Weeza5jt+/xQFJLQTwbDcNjKxGNZMFXfJ/zIkTWVKOLLLGGMKUO0PClrgQdAbQYzsNLO44Xuh4hJcuGRFZYaUestiPS2Ow1OF20yMK1JTtzcbb3cGtnuoL7eY1Wwnq54+62pzf0WGtIa3XwOY8tWx7qROjkndmEhq2GWgqduoYwpUY0fKlLrXCwO/Q6AmgBupnw3Janmxucc0jpaLcs6+2Iei0kovN8NZi31URRtZq4iBcqY0JA3e07bncdeSHESYS1MUup42UrEe2aPgtnNeqaX0vCyRtprPeherBp+FKXUlYI/aGQlbrSdVYicHPX8+yWR4jJsiG1xLCxFNFpRmcqpJ/1ONY6hkYK0z+iwiCHu1250Nora8IYqjvdkp1uKMqv1eoYSl62Ag91Yn1OzmHUsLWejrrm672oHkwavtSlISLkJfSGoiOAFiQv4bktx62exwtIWbLcjthYiomrLcZZjXb/Zj2hTQQ6hzvcT/4pdgbQ7V9s+IL9xbndgefWtmOQOZIkBgPXmpaXr0balmJOo9/tNIZ2I9yPWrqpHiT60qEuhayA7sBTlOFNejRKRs1vJxOevlOSuYSiKEliuL6esNSK5iqm90BsoFa9SxYilDJbCCtPKJofP5TDXz/PWq/TjO6f0FDWcHsLtncdYLg7TOjdLHnlWkSnrs/UWY3usayAvHQkcWjeW9ctXfWA0JUvdU8VDrr9ati16KffRbnT8zx911NiybOcTt1yfSX065p3tSu1sBSbvaLzUqBbCPkJAWz0UI6uzokQR4ZrywYPiN9fRRt/GRqdvWqry7jdFUon1XXsj7QxnM+JAccZdc7f2nXc2i4pHaS1GjGOJ9Yi1lv6xD0LqWYX1VPLUlML89X9T8OXumd6Q6E7ELy/+C2l+5UAN3Y8z1bjeHxRstKxbCwnRHb+2i4DLCeG5FDKyj3sHNoiFsJoH49Q+PD4OhEcEBthYyXa++bTAtRoRNDtLVetsBks4ew5ayCOLBEQVU+eiwhjxoS2FDe2HMPMkSQJ1hpevmx4eEk7i56VEEL3UjN0zFfqfqXhS104L7AzEPoDr6FrgbyHr2w5XugK3nsQz0MrMcvt6EwF9R5IDKym5siWoACbuVBIVbPnQtAqJfTLOrydaIBry9HUKxulg1vb7sDljP+3BWJMaAsRWaJqZew8g5gxUHrhxmbJTs8TxRHWwKMdy8tWI31OL4AINBuWpYYO71b3J635UhfKe2GrJwwLXe1aJOfhy3cKbg9jvCuwVnhkI6FVsws5k1FG/zj0mHmBfunJnKdkvx2EOfTvgz9TNRKb9ASQcKbrYeM/JUCBIF4Yek+EITaG1Bpia4nM4kOYCMTW8PBaQmRKNncdWMsLPUPpS55YjzUwnJExYWyYd7Da1kCr7j+6rqsujBfY6vkQvO71wdxHvMDTd0ruDBPyLCeOhcfXY9r1+YOX5+BZjaVAdkzh+1bh6TpHWUWc0erWaZfrpm3YVvXcmqbefnS9HiETz65zdIuS3cLhZP/YFkUEIuCh1ZhrKxHiPa4ouD2I+evbxbGhUc3GAMMivGZ43aBR9xld+VIXZqfvGRZ6FuMieYG/vlWymcVkWUa9ZnhsLSZNDH7GswRH355YqBuDEyHzIXxZYLvw9By0quWk7dKzXbjZPsHNeJaljPYuZ3jSjL7VIZQiZIUnNZZabEmMWdiW5OgyNpZiImO4tVlSFBl3SeF2wSs3El0BOyMDDHLBWsNy814fjVKLo+FLXYj+0NPPdMVrkbzA07cL7mYJWZbRrBkeXY9J5ujfNWoj0bCGRjQat2PoltB3nqz0ZFUd1+3qZ+btw+b99D9ZnnEJaa+lgXjywpMYQ91akmhxi/4isNqJMMDNzZIiy7lLDW7lvPJaqgHsjAzQG3iSyNLUVhTqPqHbjurcOSfsDM5pYOAD7Jm7JbeHEUWW0azBY3MGLwihazkxNMeaXRoDkYGdomQg/kjYmvdtsJjh+Nyc13HY6FhzEbrOsVuUlAvcyhKBlU7E9dUYg1AUGXeymGfvlhcyPeBB0B2c73xPpS6Shi917nYG1Ygg/dC6MM9vOW70oMwK0hQeXUtm7ljvCWN0OrFhKQkrX4dlPozWWehDN8u244KDy/5KmLBzqCbsrEYB7NpqDF5wRclLPXhxe1ER8sE1mrm5M9Akq+4PGr7UucpLGOa63bhIt7ueF7rgnSeK4ZG1hCSZPXilFpYSQ/2Etg87hbCZuYU/dpfh7XN8O7JbOPIFBrDVTsTacoTzHu88z3cNd3Z1yeasDJDlYdC6Uledhi91rnaH/lK82d4vdoaeZ7Y8pRMMnkfXY+ozdq33QMPCSmxIjklWuYMX+o4XhwUF5xCchekS2BwjkGY1OkNytyjpFW4hZ9WJhCL81Y7FOY8Tz5c3PTuZ/iaclRdhd6BBVl19Gr7UuXEOcl31Wpi8hKfvOEoipCx5aDWmOUMfr9FbVicyLCXmyDawAHdzz7P9gm0XlhfO97ELDSIEi5jo4J+94UIXZ7QKVshinrPXlmOWmpYiKymJePp2SV4u4IIfYAbIijBuSqmrTM92VOemn4Wz4zR8nZ0XeOZOSU5Kng24thKx1Jy+c70nFM93IkPtmG3G3MOtYUm3qmg+j09lo5DlY4vEgBeiMsf4HFuUINV+ko3xcYyPErAJPgpB0XgBcZipOn/Np6xWwepRROOMZ0RGxvDQSkJe5gyyDNto8MzdgievaRPWs/ASShnaDb0T1dWl4Uudm6yU+fsRqANu7Dju5pY8G7LUsqx34pmCV1wV1qfH5IndUrg5KMmQhYcuIUKiCOOFZLhDvHWDtcHzXC9eJO3eJup3scUAU2SY0oetRhshcYqrNWj6JbZqG+Rrj5FtPEa+9BBlrQ2A8eXCg9ioB9jAObwXGkk0930iQByHRqzP3yrIB0PuuJjOruPhjk6OnpugK4jqytPwpc6Fc0Lp9AzHRdgZCl+pBmXXEri+HFd9uCb/7Ch4LcVHh2ID3M0dtzOPX2jwMoiJAUPau0Pzhc/Reu7T1G89Q7x7h41WQRpXAxiNqZ4kBqQ6pc2FYq8EWB967E54IkmtQbG0zuCRp+i/4nX0H3mKvLmE8R4ji383zsTjC2idJYAJNGuWjeWIlzYd1nue24J2amlrz6q5GEOYIeqFSJcQ1RWlg7XVucgK4c6ODs4+K+fhczcKemWMyzIevZbQbkxX53Va8BLg5tCxWSyytssgNsH4ksaNL7HyxQ/SfO5TxLt3QAQxllY7YrkVn36FTmAsS23tOvoDwYgP08PFQxRRrDxE78nXs/3qb2Ww/rJwBFIs5JaMCJBgaSfRmbcKX7xbsLXrqdVrNOOCr3koZYG9Xh84a0uW2nH9UZS6AjR8qXPR7Xu6Qy22P6vnNkte3I3IsoyN5Yjry/FUcwNP22p0AjcGJdvOL2y1S4gxQPOFz7L26XfT/MrnMcUQbAQ21KbV64bVJTvdc8JVB1rd1s2uYzA4NIzdlSAe3+zQe+Xrufv1b2dw7avAO8zC2rPuB7BWYonm/DRhDJSl8MztgjwX0lqNx9qOx1d182EeAnTqhk5T06u6mjR8qXNxd9czzERXvs6glwufvVFSlEISw8uvJUR28najJxTML8VHi+sXH7wM3ibUt19k/S/+DZ2/+nAIXVEM5uA1rC5Z6rNstflqBUyEYQ6bJzUrFQ+uxLc6bL3229h83dspWmsYX7CormIhgBnayfzF8tbATt/xwu0SE1tiC1/zUKLbj3MQoJEaVtsavtTVpOFLLZz3wq0dqWb4qXl4gS/cKNgpElwx5LFrCe2anWrVC8KK1+HmqU7gpX7Jjl9M8BITY6Vk5bPvZe1j/5p4dzNUmJvjL31tpdommiVreIFcyAq4O6lTvPfgS4r1R7j9zX+H7SffBCILWwUTIMXQSuO57z9j4IW7Bdu7nlqtTjspeM1DiX5ImZGIEEWGa8tn3w5W6l7Qjw1q4UqPBq8zur3r2M5NOLuxaWlNGbw80Ig4Ery8wEsDx065mODlo5Ta7l0e/cP/i+vv+2XiwQ6SpKGdxFhzVANYI0RWsPNcsTWQGGw1Z3L0Riuwdz17Hx+thTgluXuDR/7tP+eRP30ncTFATHL2G1zdlhyhn5dnOsdyoxNmcBZZxs4Q7uzq78qsjDEha2u/VXVF6cqXWrjeQNgeeK33mlPp4NMvFgy9BSl44lpKHJmJG2geqFcjg8bvewFuDB2bmZsvAB2+niil+eIXeeSPf4HkznOYNMFag7UQRZYogmT0/9YQRcBYcJpLIfgyhEjnpPo3lM5TOoN3Hj8exsRjfMngFa/hpe/4UYbLj2B9fvYbT7g/ayYU4c/DGLjTddzcLEnShIZ1fM0jKXNe3ANLgJWmpVnXVxp19Wj4Ugu3uesZaGf7ub2w5Xmua8izjIdXI9Y60xXZWwMriSE6dMffyR23zjijUap/SJSy9uWP8Mj730kt3yat14gjiGODsWAO93VbVJ83AQrZP5ADTAhjXihLKEoonMcVgstz8rVHefG7fpzBI6/CuMUFsGYU0YzsXFVlXuDZWwXDzJPWarxsyfPosqavWQihjcdKS19p1NWj4UstlAC3th1lqT2+5pEX8OmXCjIHcSS8/Foy9YrRUmKoHVrZ2i6El4bztV8YvTJYA3FkiGoJDz/zIR774C8Ruz4mWsx23tQOtaA4QmQs6IVtqaIUimFGv7XGs2/7CboPfTW4HGYsPTtJJ4lJzeRVycOMgW5VfB8lMan1vPaRJPQ/U1MRgSSGjaVIX2vUlaM1X2qhnAt1GPpiOJ+bu46SBF861tt2qj5QYbvxaPAaujAyaJZgMNq2swbqNcNKy7KxbFlfq/PEzY/xig+/k8QPjg9eIuzt/Y3//6JE5vRXrFGz1ipWWQu1FNpLNa7LNq/78P/N4/2nabRS0irRihxdR5tFv3DMM2ZQBNrNiFbDkhclJSk3u4trj/EgMGb/9Uapq0abzKiFKspQj6PZa3Z5WYUvJzTrltYUsxs9kBhoHfpNHrWUKKboXD/ayYsMJDVDIzHUE1PVhwliU5ovfoHr73tn1bvrmJcNkZB2VtahswxRBEUO25uws724J4Q1Mwa66orjhHTnDk+8/+dIv/sfM1h9mCIvGRZClguFB2T2Dw0OoV+6ueq/DKH9Rm/gcb7k5q7negdSfVWemgcKF858VOoq0ZUvtVBZqR9D53WrWvWSsmSlbY/Ubh3HAq3IHNmavJ05+nL6mY2jYJdGYYXr+nLEetvSrLFXmC82pr59k4f/5Oexg52Tg1cUwcteCY8/Acur0F6C1Q14xavg4cemuPVTipj/VStOSW5+hYf++OeJiwFpalluhnYF6x1Lo26wzL4aloknd7OfYCICzTSsfpVFSUnC7b7+/swqL7VyRl09Gr7UwogIpTOL6mv5QHEebvc8Tjz1mqFZnzxCyAOp5Ugj1V4pbBfu2F/uUYuGyECzbljvWK4tW1r10Iw+qLbkMBhfcu1Dv0qy+QKcVuN17WFYWWPv/P/RHxG49ggsrS5uC/Isixxxjfqzn2fjI/+qSpgGY6CewFrTcH0lYqVlSaP9bclpDqfvPG6OFV9jYLkVHikvnls7JU7z1/QECt2tVVeQhi+1MN5D6bSr/Ty2ep6Bs5R5yXIrmmpgcAQ0Dy2POYHbw6N9qKT6k1j2VntWm4baXp46en0SJax9+j00n/k4JOkJRyGQprC6fnLxjSF8fVHdMM96OVHK8qf+iOW//hg+Gt2uMODbWmjVYWPJstq21GrThTCHMCjdzJ87RKDZiGjWDEVeMnCWLV39mpoxYdvRzVN4p9Q9pOFLLUzhp1spuIzGG3bu/bnA677RKzEmIk2g3bQTr9wD9ejowOyt3NOX/TYfo9CVRobVlmVjOaLdqOq59grUjzkmG9O88wxrn/w9MKcUIQkhmNnk5AdfBGqjpbUF3KuWs71yGYMpCtY//Nukg00wh+u1wmpYI4WNtmV9ydKohd5pJ91EQ9h+LOf4BYgMLDcjwGNtzI1dd+6/Rwea047/3fle7bkQHxo7K3WVaPhSC5MXcuVevKUqsm7UDcsty0rbstyyNBv7wea8b1MvF7o5lEVOp2GI7eTWBTGhk/243MFWHvp5HQhdTcvGUlXLZWDy5pjBiGf9Y7+L7W9PXmnyPrwDnvo9rnq3X9Dq11kvJkpIbj7H2if+AH9i59lwJbUI1kYhrH7ySpgAw2K+FNBuWJLYUJY53UzoF+fzrBMAA7UkPN9XO5b1TnjetxqGeIrZoZeNEF57lLpK9LwatTDlFau9EELoWmpYInO4YMcgDcsgF3YHcq7bqXd7HhvVMOWApcbk3llhhNDRZqp3C0eOYATiCDp1Q6NmMWb0xjTdDfBRzPKzn6D57CcgnnA8xkA2hGwAraUQsg6zFnq7oS/AwrYe4cwjG23E0mffy/ZT38Rw7VHMcccOe6dAplGoC8trhu4wnCU5Cu9QrX7hqYmdqfeXSGhS225Y7nY9Sdpgs1fSShfbdFUE0sTQaZowY/PQETZSg29YugNPf3i1wsycmVepe0ZXvtRCeB9qL67Kx2YRaNcNqy1TBa/xHlHhjzHQrMH6Uqj9OY+b5jxs9hxlWdKoWWrp5EL72Bxd9Ro62M4dMdBphJquZt1UwWCWwGOIXMHKp/8AU+bT/azzcPNFcOXRodrWwnAId24stv+IWUCXVBtjd7dZ+cx7ThwGfvQ6DWkM6y3DWtuSxkefF8PCz7Va2mlGRIBzJXd2HW7BH2aajXCCRW3vI/fR57w1oSaw05i89X1pSPjgd0VeepQCNHypBXEyaq56+avtRcK2y1IznO12+pJWCGfr1bbMol/fd3PPwBt8UdKu24mra6Gv18FVL+PlxzQAACAASURBVAG2CkdaM6wvW5aaZsrtxWMuP4ppvPAF6i9+4fSzG8dZA91teO5pGParkFK9eXe34dm/gixbbOfdk8vVZmNjOl/6CPXNFxE77UpTeM7UU9hYtqy0QluQUYP9Ak8hs43XEoF6YklrFpeXDLyht6CtNAMsNy0rjWnDuKHdMKTJ+XzgWDRjwHvRs0TVlaLbjmoh8twvbIzfeTMG2o3RtssUR1yFhuWGwRjDbt8vLEds9z3Wpkg0pFWf/Fko4uCqlwh4A3FN2EhGBzXvwYVar5W/+gCmyE85w/G4HzWwswm9LjQaoR9YmcNwcLlHHtgI292i86UPM3jTD2Jm2ssMRfitOjTSiO2BZ5AJHsgKRzJjt9TYhtXYW5knjVO2+iVL9bNtPRpgqRXq/WZ7XgithrkyPbS8QF544mlGQih1CegzVS1EfoU+dUYWkniOpRNjWGoQVsAW8J7kPWxW3c0bqSGZsNLgCW/QydiOULNhSBtVV3QzaRXvdGIs9Z2bNJ//bCgam5UxYeux2w2d7fs9DhRFLdqiLtZYOl/6CHG2y3wviQZrhNVm2IqsWchEKGdd/QJadUtM2HrcGvozj85Zas4TvML3p7HhxHMRLqGr9Bqk1BX61VKXlQBlyZWoEQlTcI52hJ+eYbkZzno7awDrF8KgAO8czaq7+iR1G643trDatnTqhp7zCylkFxvReP5z2N7WMe0XpmRMOBZ7tiB4oWxMvPkS9VtP46Mz3O5qK3J9OaLZMGRuxrN/q+3wJDW40tHP5z/rUYBOY97gFYSHcfFb7edCwmvQlThWpdDwpRbAOXAPWHPVlaaldsaamF4umCjGIDRTO7m9hAmhq1E3bCxF1BPoOyGfcYXlJMY72s99egGXdEEWtvJlMHlG+7nPLOLCsAZWm4Z2E5ihdYMAkTXhrEPvMVFMN5t9OUckTC9oN65QAD4jY0KDZx2yra4KDV/qzIpSjnRUv7QMiJczr1oZhNXO8We7TWtn4AFLEjN5y1HCAO31tmW1Gba5MIZu4Se22JqGGEva26Z255nxOUOLscjliHNb2rA0XvgiUTFkManOkKbCasfQmOFMWQO0arb679D2YRYiIZyvNM/+0u48uAUF+4vgvfb7UleHhi91ZvkVGu1hCG8qZ26LYQwWYa0TmmPOelGFg27mca6gnppTxwmJQBIZHl2JwjZStcWVe6HvZDF1OTYi2foK0WBnurYLxx7owf8WqhYkC5p8IBI6mXs/flVVO9mzXoG1JFs3SHubyLy3/wiD8561tmG5afaa355GqLYeI3C+pJcz9Vl8e8GrtYjjF/JSFhLsL0w1akipq0DPdlRnVozqva7IR2QvYcsvbZ7xgMcC2N2upyhP3nrNC8icxxhDPTYMy9CRXkpPI41OfGMevaGutgzNFMbv5F7pKZGFfIISDM27X4Eig6Q27Q8xOnAhBKOyFIoybAE5R9g+AzZW4zPvgInA3a0SAGMtsfFEYkmicAJFZNlvKCvMtuVmLHbYI916keHKIyyiyZYBSgltWNoNiCPDdl8o3cmHJgJRHAL9MHMMI+gOhTgKg+vTyFBLjv7w/vNkccGxP/Tner7EwokO2VZXh4YvdSbOQ+mvVr2XMTAcClliqCVnTI3GECGsdyx3dz15cfS+uNH1vNiFQVZiLDRiQ7MahWhs6Dp+0uf1TjPU7sRGsIdWZAbl4raEjHiSzRem/v6wCiUUOWSlUBYe5w1+NNcIQjssDJE9PD1g3oMM/3LeIF7CKkfhoKrvjyJLEgu1xJIkoxM2ZbogFoqGqG2+iDxhFna/OgSHEGOop0IcWTZ3w6rSSYcURWH1q595jIcv3i7Cap9AsxbzcMfzUGd/a3ixK14AQj/j1GO8jPaGbHuZajC9UveShi91JoUT/Cmf5C8rEdjuedY6EXF09gA2WgHb7HqysQC2mwlfvlsiNkZEEGcYGEO/EErnqSVHm1kK7HUab6ahxUQa2QNH6Lww9IvaYjFYXxLv3ua0PczQSymM1cnzcAx7Bc7G7Pc9PdQAdrGd7ccWWce6hYhAUXqKAvpDhzUQR5Y0FeppqKszZnIQi3ZuYha811Y4Ia1am8RWWF8ybPVhMDw+3Jiq4Sr4va3WsLsqDB18+a6jlVraVS1ZoxHmdy6GMCxgp3+V9hv3iQ/hXNt9qctOw5c6k6Lkymw3jjMmvKnd6TpWWnYhK2BWQhH+Vs8zzMIb6yAX4rTGsDeovlFwYw2JktgQjb0DCxAZWG0bagmEsutQbD9u6GXmLuonEQxRMSQedI8EE6kC1zAXsiysbo3mYxumC92LakY/6XLGg58I5KUnL6Dfd0Qx1NKIRh2S0YrYkUszpLtbmAWeMmcIRevh1Ar2nidrLcO2hd3+0QAmQJpaIhvChJT7x1NmOfV2g2HuaKWGViO0PlkIEfp5CF5XobP9cYTwfA1hV6nLS8OXOpPiinTAPs6o+H5z17PUsDTrnK0p6CiAtS1bxoeVDcKK0UmSKFydyKiwPgSvJB4dYfhndCgoDKseUot6i7FlgS2qgCihVmk4FAZDR+lMdbeY0c2cjZk8NmmqizFUJwNM95wbhTEhfEgoCkd/AHFsadUNtRrhrNG91TCDHe5ifFmNGlrMc9tJeA7s7YSNTUyIge3B0etJotBjyx1zDKNsuNS01aSGsxJEDNsDYXDFBmofJxTda/hSl5uGLzU3L+GF7iq/zBmqLci+Z1galhr2bNuQ1fbbasuSWOHO7ulDltPE7AW0NDKsdka1SuH6wyzHoz1Us0Xe78ZgfIbxjry09DNPlodVrjByCIyYcDBj9VwYYLye69gzBhbS/3WPjYCCWSflsFeH78MorDwP93O9bmjWI+Lqdpgix3g3w5zHaa4+1CEl0dHavlYDsIad3n5D1lEj4CgOJW3j61rha7DasbQbZz2w8EFjWEC35yn81f5dBvaK7v2Cn3dKLZqGLzW3AzU/94FhJuSFo1mztOtg7dk+QbcbsLZkea4P+eF3XRPeVJM4FKmnsWGtE4Z4H77Ow83inSxwlEo1DTrLSu5uFRS7DvEW4y2mNFCaMDxyPHhVx78XviKBWMKriT2awBbWuYEpHg0BnAWpjlvMkVBoquMunbCbC4NBSb1uaNUE64qw8kWNRfV2FzhlYmS4XkM4E9JXWdYaiK0JdYJjx52mhvUlQyM9w3Oz2lMsHHSHniyXq3VW4ymMAec83tuFt6tTapE0fKm5FcWV6jAx0Wj7b3fgGeTQrofxLOaYQDTlJVKP4dqSJfGW3IW2EJENZ7KVHqy1pHHYaoxOCHvxoY/wzgul+LPd79W7bVZCNwN6Ma0BRAOLKaMQuk79+eqPrwJaRpUmPdSqQDa6FwyLeaKcFhAc4CMoq+A16dj9/hmNvhB6mWcYOaIGFMQLC14j3gsSnXRchmYVwLb6sjeHvFmzRBFYD5iwUldLoXamMCs4D91MGGb713U/BK8RIQwEj0+8v5W69zR8qbll92lDQ2NCXc1239PPwoy8ejrvhYVtolYDWmPpo1Gz9HJopYaVtj0xeAEc/gBfyBknCohQeOgOPIMyxuQZG5/7c+ymAxedcBxysJGpOab83QOZhRxIPdQFrBz7rXM5HBJGoa6IoJy0zDG+X3r4SwZTRvgSsps528/dxLziFSxZhx0ln7MdNo6xovsTvqtREwRDdyChJi223N7xRwvy50lK1VkSvQx2hx7n7r/QNS4vhWbtPr1x6r6g4UvNRQgNNe+rpa9DDGFrZnPXU6+FerDTQtIsrIWNtuHaSujhddJlWo6Gr9xPeiM/ieAlvLn3h0JpU1o3n2XjPb9J6+nPQJSMHYeAd6HZqI0gTiBNILJVc7ciLH366uvRWGgTQggrBOoe25z5QE90YBEwi2Foj6k1Gx27AD4c3yioid8/qSKKODhAPCLZ6fLor/3v3P6W7+X2N7yFdjOimY79zJz84aL7Yxmatf0O95sL29IXcgc7fUdeTn+W6pVV1X3dL1up6v6k4UvNxVUdzO/3F7fRzRsMQz1YpxG2Ihfxym6swU6oCjZw5HvmWnAUYVBAt+/DG1OcsvLFj3L9Xb9KvLMJ8WhpT0KwimN4+HF44il4/JWwugH1ZggszsOwD1t34Pmn4ct/CTdegDwnnKZZHa830IuwDaC1mFXSyFQ1XH0D+aH4KR5KF47h2iPw2Ctg4xFYXoO0Fr4+6MHmHbjxHLz4HGxvhb+Pq+BpLHF3i4ff9Sts3XiGm9/+d+m3miw3HMkZTsSQvX3ayT8fVXkysuaMT7FwFmN3IPTHthjvd6HuS/BeiHTrUV1SGr7UXIoy7DI9KC9to63IrZ5nWITeSscVx88ispNHAx33ZjlTdw8Jq11bg1DjI4Tgtfqp93H9Xb+KLfL94OVKiGJ47RvhjW+BV7waaqeMGnr5k/C6b4Qih+e/DB97H3z6o5ANx8IcmMzCQKCxkAngsGvAjd8xVWBsdeBr3wBf943w6CugPuF0wO278OUvwsfeD09/MayWRTHYGBBWPvonJL0dnv/eH+VW2WKp7mmfoR3J6Nky7cNn7XTzIE+6tqxqljoae/UgBK8R78PqV6RF9+qS0vCl5nKVhmkvkiGcFVmUjqWGDWedzfmuZqyZ6t348KV7P23kC6tdOz1HOVr1iFJWPvdhrv/bX8W6Yi9oUBbw+BPwnT8Ir/q62TJlksITrw5/3vRWePdvw19/fm81yRhgaEAsNM8QwMRgBiakz73d0eo8wjd8M3zrd4fVumktr8HXfxO89s3wxU/Ce34XXnhmfxUsqdH6/Cd5TP4FL/zAP2TL1xnmnpXW7O1IhKo/1wxhYK9WbsawLcbQHUB/4MMHpAcodO0x4QPi3LWaSp0zHcKg5rI3TPsBZEzYedvqebYHMlc38NDX8/R3xbHJPQd+7rjGmwcvPBzTVl/Y3PUhqxjwNqHx0tNce/evY8u8qneSUNf1hm+Gv/+T8NSMweuwl78KfuQ/h295G3iHMT7UORlCHdjQzn/5fYMtx7biXAm1Bvytvw8/9I9mC17joghe8w3wH/0kvOlvhhWw0X2cJLS+8HGu/8m/DDehgNs7jn42+9XMGjtn3zETnBju7np2+/5+LsecTB7cD4jqatDwpWYWhmk/oJ+oK6Ob3hsId7se52HWFDbNSYDHjZ6RU8OXUHrDna6nV3VODxdhibM+19/968Tdrf0VL+fgm78T/r0fg87STMd/onodvu/vwdv/dnUbxo53aKGY8YkzCm75oeC1vAJ/7yfCatsidJbhB38Uvv0HqsdyFMBSlj/2XlY+80EkTvASgvdWFXDObRaPCQF9qksXoSjh7o4jy67WQOzzMBqyvbDxp0otmIYvNbPSC97dR91Vz8AYyIoQwGbpvBXOOJunZcBp7/VhKPKdHXdguDeAj2JWPvpHNJ754n49VlnAN387fM8PnzpQe25v/R74tu/DeLe/SirAYMbrKs3ezxhDWJlqt+GHfxy+6jWLPOLwwHzH34Lv+P4QTEfrR17Y+NPfobZ1E6nOkOwNhDs7Hi/T7Q2eXw4QCh9WvIoH4CSYaYXzLzR9qctJw5eaWZ7rOdzjjAkzLruDw23gL5AIvSFsdve3Gfe+RET97kusfuyP9iuQyxye+hp4+9851zks5tu+H/PaN4agN1IayM30e2JDs3e3GgRjLXzvfxhOCDgvb/1++IZvqvbXgSgm3rzN2p//wV57ilHwvr0dWjjcu314Q7fnH4izj2chhCHbSl1GGr7UzEpd9DrKhFAqk7qrj1vg+8L2IGyFHVvnE0Usf+L9xNubYbtRPDQ78I4fhvScK5Jji3nHD8HKWlVLVcnsdEVQ5cGWEsaXmDd8czjL8jxZA9/1Q3D9obDFCRAnLH3mw9TufAUx4VwlY0I7s7s7YSrCqQ/qOeUA50N9kwavo/LyXh+BUsfTsx3VTERC9+gHu5r3KEPov+W8EFumWoLwE6q3TrqiwwX4Wz1Pf3j8m69gSXa36Hz+o2OrXg6+9S3wyMumusrhMOP3f//dvPd972dza5uXP/4Y3/Wdb+NbvuWbJh+uAbN6Hf6dt8G7fpO9gXujuZGpnB5K8vEb67Gr6/Dv/sBUxw3Q7e7ye+/6fT7wwT+j293lyVd+FW9/+9t48xvfMPmHOyvwlu+Bf/kLhNlGFru7y9JnP8rNtz6OqbKkIeTIzV2PNC3N+gm/HDP+voiAyKRh12Fc0HmVnV1pUpVITGxuq9TF0/ClZlL6B6dZ46y8hG2ouD5lI4hp3jEPfUso0g81RiJwt+cZnlZgHcU0n/tLkq1b1aqXg6UleNNbpjrGl166wX/zT/5b3v3u9x74+1/59d/ix/7Bj/Bf/Zc/SZqc/DKy10399d8Kf/GncPvWfgDLq/B1Em+gGFucdx5e/02Y1bWpVs2+/Myz/Nc/9dN88AMfGfvbP+JXfv23+PF/+A/4L/6z/2Ty8/jr3gwffg88/1zVA8zQ+cuPs/nmt1GmR4dvb/U9XiztY1qMzforM22x+CDXz0LHMSYstnqPDtlWl45uO6qZFIV+yj6JAbp9oTec7g6SCSVitvrygZGKQFS9ze5NKzztXVeE5jOfrYrHCXvGr/5aWL8+8fjyouCf/o//M+9+93uJGrUDf4Z5yT/7Zz/LO9/5yydf9dgx0+rAa94YAtSIs4eapY4xVMOyRxfmodnGvPYbD1z2SXq9Pj/9M/8DH/zAR44c+3Z3l//1f/s/+O1/9TsT7wPSWtjiHCWhKCK58xLpzWcRezB0jo7JL+gXZPyEy5O+vtUX+sMzDlm/j3mBvNA6CXX5aPhSM8kfpLb2cxBgpy8M8wnvnIQcMs/bgq3Gz1gD623LctOGoHbk6gxRNqT+0rP7H/0jA09+3VTX84lPfop3/dGfYo/pVGkjC9bwy7/2G2xtbZ94GQeeKk9+LSQJe/fLeLg6Tjn2086FJrDXHp3q6feBP/sQ73v/nx177FEcI87zzl/6VQbD4eQLe/K10GoymulgipzW8399IPWKQGJhrWNZai7mF8T703vI9Yae/kA/CZ3KVK9ZSl0yGr7U1AQoCv/ANledhgjEkSFNJnfxmvTmOrq8w99yeAelVYf1ZUstMQcuT7DEu9vEW3erxOah0QozD6fwyU98iqzbO7ElhkkTXnjxBl9+5tkTDj508d/78WuPwNJyteRXOSnMCweDmQAvfwoT2TAZYML99vG/+Di+cCe380ginn72K7z4wounXxDA2nVYu1a1qA/SWy9gqjtbgEbdsLEUUU844QbN1NweQyjNO+1m1lJzLh1C7isSTljV1Xp12eivrpragzJM+yyMgaWmwZoJr/ahdRTiTy+oFo5uY8VHfmsNSQTrHUu7MTYP0Fqi3iY2z8KBiQ/hpz1dM9WiKCZ+jxehKPITv34gHDTbsLJxIMTgT7j1Yg5+LbLw0GNHL/ME+YRjN8Yi3lMUU5wOl6YhOI6O20C8cxdcgcWw2rKstWx1XCcE1SmPe5yb0KMqiaDTsBosTrE/ZPteH4lSB2n4UlMr3fRFwA8ikbACUoth0qqXIdyXxYRtXE84i3JcUg1cPnyJxsBy07DWsSQWvBjiwS7Gl+FKPNBcgrQ+1e156qknQ+g5gRQlq8tLPP7YY6df0CgdGBvC3/gb4WlvinttOwTiGNrLUy9hvPrVT41+8viLLkuuX1vnoYcm174BsLx64HbYQY+6KdlYjmieMnv8yPXO8H3lxLZxhmY9rLJqADuZ9xLO0FbqEtHwpaaWjw80VgcIoZNDp26nXhoUEfwUHbjdof9PjTllCyuEv42liEYDjHNjgcWHAvIpz7v/xje/mTe+4XW4wdFBhgLgPN/73d/Jww8/fPLRHL6qeKzmC05JR4e+FsXVz053937bW9/CU3/jVfjjjl0EvPB93/MOVlaWJ18Y7AXW0VmFnbpwvVW1FZnil8JiOC4yn0QECjd5grpB6DSMtlI4jTEU2uleXTIavtTUirF5w+oQgXbdEtnp7yARyN3kt+7Dq42RNcTGnvxQmLDtudayrHQs1owvGE2//9LptPmZn/4pXvmqJ3CDDDfIcXmBG2T4Qca3f/vf5B//pz9xahgyk0vfpmMgFJFNF76uX9vgv/8nP8Vjjz8Sjj0bO/Zhzg/8wDv4Rz/2H890CCKQRIbVZctSy4z10Zjwc4TzHGYZlO0EyqlWawy1BGp1Xf06jYYvddlony81FeeFQrtoH0uAJDa0puzvNS4vPDLhM1DpQ+f80X0fGUgtZAUnf3wyofKr3mmwvh6z1YV8YDHDQThzMJqu/PsN3/D1/PzP/XN+4Rd/iQ986M/Z3e1xfWOdd7z9bfzIj/wHLHU6p/58fPguyYYcSGMn3WWHQ1tZQl4cf5kneMtbvpV/8XP/Jz//i7/ER//iE/QHQx5/5CG+5x1v59//4b9Ls3lMM65jCGDyIc2GYWnFYo0nT5Kq1cR0b+p2hl8cQ6gFnH54vWGpbsgypwHsGIbwwdH78xlhqtQ8NHypqZT+4Elqap8B2o1RmftsAaxwgpOTM5QlrFV5Dp4tV4sM3cP7kYePS4SyuYSt1diICnZiS7+3gx8MMO321Mf4VU+8gv/uZ36a3V6f4WDA0lKHdMqxRAfCg3Ows3lw2/O0N0Mzuj9NmA3Z2zl6mRO85m98Nf/L//RP6XZ3yfOcpaUlklOawh4mEsreltwWjU4UjrcUXL2Nr7ZBp2HN2IkQkxjIXKhVmlZkhXbdsNPXD0jHER8+xKS6P6suCf0coKZSFHOMwnkAiIRVr0Y6x/6aCYN//YQVRanGpIyrR1NUEHmhbK/iG23wnqV2zKrZJenfnWuFpN1qsrGxPnXwCsaOsrsNm7cPLj9EJxyIlfBnxAnc/MrRy5xSp9NmfX1t5uBVSwzrjYLG7ksHjrtYXkeiiGnilCH0AJv2LjdUK6IzPUaGZt0SR4d77ivQIdvq8tHwpaaiNRPHMwY6jQlrGseN+TMGY0y1nXv6dXjgcEOEmjXEE5Y4DELZbJOvPVS1STDUZMD6zjM0Gge75J+Lw/VZN56FXnf/L0O7/pMPYnypzwDP/hV4v7g6shOIjFqGWNaXLPHWLbg7FhoNDK89jky5hzVzsT1hTNWJl3fCRVkTVr80fR1v0u+ZUhdJw5eayAsUTl/UDxOBNDbUTmmoai1I6Q80+zRVi3ojof9QVkwanhy6dI/f/bE11O2kVQ7BRwn9lz019lcG+5cfZ7UuLLct0QwrMrM60tvq8x+v+idUtzY+Zb8VDq6KxRF85Wm49QLWnl/2CiuZoVP93nzGL30Ger3QKgNB0jrDx54MZ5JOujxCjdosxfalhywPt92YgwnWGENZ+BNqlwyNWuj5pr+qhwgUpWirHHVpaPhSE3kf6k+0luQgY6A1YdVrqW7pJI60XqdWb1CrN4hszKMrMa1ajI0TBoU/9c3SEpqZHn7jaExReW5w9J94DVKvs9cv68t/Bc8/QzOF9U5EPT6/M+X2VmnuvARf/GQIUSOxVHVdxxBCReret1vo9+BTHz6Xtgqjo2g2DOtLEemoV1s2gM98eD9FOkf20ONkG49hpuzcGVk7dVgcNQXNxwK7gb3nTr1eZyl1LNWPf+k2RmjVzzFRX1HGhNcxrVtVl4WGLzVRnnv9xHjIqNarPmGMUGQNr7oW81jbsVEPf55cg5etxrRrhthGZJkPC0KncALFoQehFduJI2uM8wyvPc7w0VeGMwYxMBzCh/8wZDEre/MIzXktbgrwZ++BnZ1q9YiqEOqY2UnjrEAydsdEFj7xQdi8s9jDq4rqV9qWlb2eWdVj+pmPwPPPhT5j1Td3X/0mXFKF2Qkm1nsdSr0GGBZhRTRJUtaaEV99Pdl77jzSdjx5LSE6MYEa6jVzIOOqwHP6dq5SF0nDl5pIB9MeZQy0atOdvxZZw8OdiFeshT/r7QhroF0zCJ7ChWJgY2CrP+rGffRys0PhK7WGZmQndO4KW4/br3tL1a2+2lf7zEfhi58IN8SEszXXOpYkWtwqWGiDZeDZL4bQNJ4IEh9Wvk4/dEjHGvuaCLY3Me/7/xa27ShAvRbmMjZSDhapdTfh/b+3//++pFxZp/vqN1RTAyZfdmzMKW0mhEEOvcH+4y1AP/PVfwvLDctaa/+583AnOma81EHWCM2a9v06TqGvZeqS0PClTiUSxgrpNsY+IeSI+jxnOI7p1C34EsHQzx3DXOgNhLtdCT28xu70qsPBkVFDnWTylpZ1Jd0nv47By796f/XLOfj934DNW9V3GdIYNpYszUUV4xsw/R141/8T+nuNr3rVJ6x6jcQC6dg7ZpwQfeKDmE9+6EyHNiqqX25a1tqWaK+tRcV7+IPfgps39le9vLD1+reSL61hpty/SuwJq5Mi9Iaw2RN2hkJZNdstvDDMPNZajC/o1OZ5fhkaNTttK7cHh0BeznoWqVLnQ8OXOpUXKLW56kECzZrFTBqePUEtNrRSSxTFDAbCTi+s8jiBu7tCP6uurHLc1mMzNqRmisL7JOX2t3w/vt4IhS9RDLduwO/84l7/rNF8yJWGYWVUjH+Gm2jzHPtvfgW+8sx+gAGoTbHqtX/o0BhvOxHa9Zvf+zX48hfmOq7RlvF6x9Iajbk8/AT/k9+Fj38IkqqthivIHn05269/K3aKVS8IL64nbTnuDGG7H77iffh/EPIijPGK4phWLapamMwuskIt1dWvcab6zDFL/zSlzouGL3Wqogz1J2pftIBVLwjF6CsNS2Qtt3Y9u0OPrabWiMBWL6yOjL+DDvzBfmuRMSzFdmIhsXElvZe9mq1vfHt4B4IwK/FLn4Pf/FnYvjv2zYZGElbB6rX5+kZJr0f0u7+A/cxH9mYyhusUaPjZltWsQHP/BhobYfo95Dd+Fr702emPqfp3q2HYWLIkxw1AFw9/+P/CH//r/SkA4vG1Orfe+rcp6u2pqrbDlqM90g5ECFvL3cH+HWAMDDMh+ka7qAAAIABJREFUK2F34PAC1liW66dtWU4+gGaqMx8P8163HtXloOFLnSqvdqlUIAJpYmaa4Xia5bqhLAt2e8Ju5o/c1dt9Yfv/Z+/No2RJz/rM5/tizaX2u/Rdum+3ekNLayS12qgBCQQIwdgGD5iB02M8M/Y5cxhjs4/wzDmABgawZxiY5QyM8RjJxtjGgJGxbJYGSZaEtYGWbi29qNXL7e7bd6lbS2blEsv3zh9fRFVWVWatkbXc+p5z6i5ZmRGREZERv3yX39uz/9ZAbiDbEM6YCDXBtrYTVoDNP/RO2q95CNLEPugHVsD8i/8Lnn9q4MkKT8FsUzNV17YYf6dv+ZXL8C/+b/wvfRIGTU1LEbXb86ms/YrtXVNpIaj5sLQI/+ofwSc+uHkA5sZFCPgaZpqaqXo5qmnDhrQW4H2/Dh/5g6K7sajpE8P81307K3e+Fp2nO97sUA+4e4kgAgttm1reuAsEK7Y7PYOnFSZPmBrR0bgjlCL0FcEYO1mPJcoaRjsch4337ne/+92HvRGOo0u7J+T57ka63MqU5pu2dnz/O8XXcHkho514mNzQbHiblpqkkANxoIoBRopoIKThKUUi0DNb+4UpQDyf7u33Urt+mWD+qo3uaM+6zz/xGcgSmLsNonj1oIeedXpPcyv+Rp4LvRX45Ifg938T79rLTM1Ea5EbDTTM9h2OW1G+NlN4StFLlRWRT30ebr4Cc2ehObnpZQLUYsVMc8BCYpA8gy99Gv7dP4Onv1SkSAvhlWcsPvRNzD/8V1Fm5y6dPlDzdWEXIRhR3GwLvWR4Ct9TsNwxrHQNcRzSCOHCtL/PM8yeLaPWeVJRKOp7qqVzOKpDibjvRY7h5AauL+fF+Bt3sRIg8BSnJ6tz+TQCj72Q8NyiR572uHg6oB7pTdEKEduVN9tQaCVMh946485+LlzupNt0PhbL0h7BSovb/vCfUv/y49b7C2XTaXkOp87AA38J7n8jnDlfpA3tcO/lrqHTk9WCdbIcblyBpx6Hxz4Or7wIymNyMqBRB0QVwivfn/Ba3XigqyFRrHRguW0QBJVm0GjAa98Er30QLtyF1BpoDZM1TX3Y0POFa/Dsk3a7n3/aHoxVSwlrCrX40Ddz7W3fiSi14yJ7AeqeR91TCEJmFAst28U66mOkFLw8n9JJhNtP17jQNJyb3n/FvBG4vpS70oECEUEXn+HRdh0Ox/hx4ssxkiQT5pfdVbtEBCbrqhiiXcWF29Z0vbKY8/mrGVkmTNbgttlgaKqonDU43VRMhNDw1qelrvZyFtJ8R7UEoj28tM+pD7+Pqc9+2Lq1r3b1ZVZ512pw+jY4c9FGw5oT4Af0ehmt68ukV1+BKy/C9SvQ6dhUZeAz0dDUawDKCq6aGT3Dca/0NPQU3S60VkzRkWusGAw89Nxpokt3MHHpHP7MLIQxmBx6HesTdu0lOytyaZlV89nymGYpplZj/mu/g4UH316kNHf+OdAoJgKNpyDNbKox3SJ6rIpU2PPXU4wobpvSPHgpIA6qqAoRFlaEbs9FvwaZm9SEOzApdjjGhRNfjpG0u4blIfUpJxUFzE1pAk0leVgBbiwaUiM8dTVlMQmQvM+dZ4KRA5JFbBpwZkJzumbTbyWpES6vZKTs7JiJsmmxyac/w+xH/y3h/FXrpbWKsSKsmAtZGHcBguTQ6xv6uSJDo7W9mVmDzyIsFhlbpzWuEyhV0NeYvqKf2MiSYFO5oZcT6kI0KW/teJnCU0sp63umNkSXTEb34t3ceOtfo3P7V6HylN2E68qoV82DXgqLbSGXrXeBVjDfynhlISeKYm6byHjLq0KqEvi9FG62NtcTnlQEmIwVzboreXYcHv72T3GcVNJ8ZyaiJ4Ey5RjsZkjfNkvsJVYwKeB002PhRkaewXI3Z3bCH7rrlYIkh+stQ6g0s2WECQi0YjrUXEvyHd1olRgQxdJ9b6Zz4R7O//tfIX7hK0DZnaitQBmS/VIe1CKhBja1WG5s6Vy/GzuJvRII+DnaV9RCTS1Ta9sgA5GsQUZm8gSU4ebX/ufMP/St5GGMzpNdb5KHItTQ6dtmCbON8AI7y3GpYwvtxaRMRR5prgi0VCDyFZFvBWk2Rh183HAdj47Dxkl/x1DsMO1dWgLcygjEYfGPSlB0ems1UFOxph4IXhiwtGLIt+jeK+fUXVkytHpr7ugAU6G3A9f7QQSVJySNaZKzZ6CZ2sL4ULa/OogqhBdFhbnARA7NAxBeJapYbyO3nZSrBfU7lBkK+17rBplWtO9/Ayas7aqrcZDYU/R6tnNRdiC8lIKVbk6vL/hBQCMQmqG2LvcVKSWlhDBU7rNcIuWQbbdDHIeHi3w5hmKM9fdydSIWrW29FRuM0PeECKlRpAMF2J4HZyc8nl0Uen2h3TVMNbyRNgEKSAVeXjJcVB6NyG6Yp+BUpHmpI8iu7raC8UOgiFqFgFG2zbL8e3BxCivOvEKk6eJv4eBv8lJsSywQ5ZAX25srW6ol5QYXTy633RcbCdN2o8ULEeXZ2rA9bEKgFN1E0dlFqj4XYXHFpnVF4MyEj+9BLxEmaroyn644UHR7TmzA2peX3NhGX4fjMHDiyzGUJMOJrwJrmKnwPVVNNEJBt2+HlQ/u39m65spyCkHAzXZOs6a3NNnUQNfA9WVD3lRMFinIuqeZDoT5HRbflxslQd3+s7xH60KcDKqpYeJTNvx9WJTr96S4ssn6x0sGt39w2z0f8cM9r7ufKNJk58JLKeh0DN2eIQgDaipjtm7Xn+fQT4RatHGD94IdHaU1ruuxwIhtcqiujMDh2B0u7egYSrJdlfBJQuyUmf2OE1pdnNgC8Y26KvDg7IRGaUWvb1jumB2J35VcWO7K6rgagNnIo7Gr9CNIGA15cMPPqMeOGltt37DfiQHtIzoY8oKt1mPrujpdSPu7e2kusNA2GOwA8rPTHsFAJKabVhFmtWjEGa4Oolzdl+NwceLLsQkRyLIKPJluFZSdw1gNtisvG3Hhn6t7RGQEgc9COx/5vBKNTT92UljpCgttY4M4CKcjj2AXN+8sqJ3oUKfxAyTwd2Hlb81TF9sC2e6iokpBayVjpYh6RTpnru6t+32SSmGhUcEHUUHsrBXWEGul48So47Bw4suxCVPYJZ3g+/A6tKbwBKpmh3TT0Rf90Idz0z4oGx1bbGfb1v1orLt9YqDbt95sRhSxhkagdpxqkjA+uQddbM2b0QE7m2Zpvbvmlw2eaPxdFmdlRrjZLiw8gHOT66NeYD+HSVpRBFogCJSdmuRwQ7Ydh477KDo2kRr3jbCkrPfyKvqkiNi6oK1uqKcamrpvCKKQxVZOP92ZQWY7t55SSSrMt3Iyo3ZcdK8QjF8DVVbNnzQE40eI2pFFLUlmhZcWO+ppN3tMKVhoZfQTIYwCmoHhVGP4ertJRalHpfC1HUV1Eo/uMERc6tFxeDjx5dhEmu6uT+6WRiAIin/se1lCmoudj7jF0zwNF6d8kJw0V9xYzna09kyglQs50E/tzMiFrqB3NARckCACPdxf7JZHBAliRPtsvQOEblJEvNA0NoartkEpioimQWuNmJyLk/5Qca8Uq+dLFSiknBTlwO6GNDvsrXCcVJz4cmwi3X2n/a2LgrCqjihlXc93kumYaShOxUIURbRXDO1OvqP0Y2ZgMREWM2EphXZH6Kaw7R1XIA8j5KSmHYE8iLd+/yJ0eljhhKLh796nQASuL2d2ClIQMVdXTDVGr1OK2qRKFJOCyHX3rSPNnBJ1HA5OfDnWYc1VqabI9xZAKwj8qgwqFWm60zQgXJwJ8EjB97i+nK/zBdsKwR5HDYTao7NiHde3i+gYL0S8Kt1njtE5JIIJtqh5E6HdExY7tk6rEXi79uDSChZXclodgx94KPrcPu1tGQUVgV5VAkHsCMsTrK/XU0Sinf2G4zBw4suxjiwXjBGUu0Jb785iBGAVd6zc2ELrnS4qDhQXpu3cxH4CN5Z3nyPRQM336HSEdpfRolrA+LEVX1LN3UiUXxiWjkmEVbxsE46OfC12haXCPLUZePi7PB+Ussap88s5GoVSijumPeJgm+UoyBJbK7hvCq86V3RvUco2o2Su6N5xCLiPoWMdiav3WkPA99UOu9+2X1i2h2/ZZ5oe05EhiiKW2obllXzXOlAD9cCn0xUWu6PeiyBeAFVFvvIUc+4e5LVvgzStPpKapzB5CrywsmWbsM66ajyxjSc3VwwrhfBqBB7BboUX1tPr2mJGmglBFDEVCqeb26ct7WuLuq8K3qf9MuH8vkpc3ZfjsHDiy7EOV++1Hhv1qmZZabb7+6dWcOesj0eKDnyuLeUkO+x+XLccbMSm37ViYtNmCOB7iFeMGNovAkmSkL/1e+EN3wh5trNit22XK5AmcNcbSN/2N8h31J24ExQEAyazYj285luGbs/u74bnEe5lfQoWljPaPUMQ2GN515y/47SlMUXdVyXnoVSmr28VElf35TgEnPhyrGKkNHU87C05OlQ2fkRs59peiAObotJakRu4upBt2zE5DK0UE6FH2of5trFCsFCDCsHowEa/qjj+ns/y/DXa3R68/W/C274HwtDm0PZKltr83YPvhL/yA7SMJul2Kxv5lAa14j9CZqzwKm0+Gp5PvAe/EaWg1TXcXMrx9C7SjRvY67kzjLCqgZG3AmI9Dd0lz3HQOPHlWCU3kOe7j6rcqigFe2hoG4qg7NSAPe7b003NmZoQBDHtruH6UspeyoC0UkwEPiax4sIMLESUR+7HVHIr0tBbvMnLz32lEEzfBt/xw3D+Phu5ytOdLytP7WvOXoJv+374+kfAC3jx2acxWVJNBblSEMSo4gvIzVZOkgmeUjQDj9jbffJZKUgSsWIZ8IOIMw3h9MTuL7s2NVbNB9PTrui+xJqtCrmL+DsOGCe+HKukqexqFuCtjlKgdTWdjrmxdT97vucpuDjj0fATojhmoWVYbGV7uol6CpqhB5lioVOmIAXRnp3vWElBkMYzKZ/5+EfXHjp/H3znj8E3fh/MnQeTQtYHk4Hk639MZn+XZzB3Ab7hEfiun4B7HgSgnxue+MyfE/oVXMJEQPuYIMYI3GwZkhx8ZVO1odJ7El65EV5ZyEgyIYpi6n7KHTO7z/mVy6qkLlzA85QTXwMYIHFuq44DxmX/HaukRuEC8BbBihRPsf8wQVEwvV9NE3iKu+Z8nrqeY8KA60spvqeYqHu7WrZQFOGHHr00Z6UrNGqA0hg/3t9GDqxlrhnzqY98iLd+x3/JHeduK95ETPK6b0Lu/mp47vPwlc/Bteeg21pLKwYh1CfhzJ2ou19PeNfrIG6sW/oXvvBFXnzycYI3na3mlFWa3I9Y7BjSHCKlqAce3h6PfZkebvcNYRQSqIx7TgV7npQgYgWY3m/nbTGtQSnnJjOI016Og8aJL8cqSWrsjcx9KwZsK3olEYJijpzI/nVcPVTcNaN4at5gtMcrCxnaUzQivftifqAeeBgRlIDRijyMqxEzArU4JGjN8973vpef+h//PiD0EmtSKtThwl+yP70VWFmCtI91ta1BcwrCGAVMe5p48MQU+I3f+Gc8oFKbQ9tu+vhONldrEi8i6Rtqnib2vb2nBRRcX0hZWikL7A13n/KIg31sn9hzaJeG+qM2Dw3kuI86YOsxXcej44BxaUcHUKTFjKsFWUXA86gsPFCBPlhlqq65NK2sZQCaK/MZvb7Z87HTRhErTeRhjUarin4qePDiNL/7O7/Dn/zJo6S5YqljNqe244ZNQ952F9x2J8yehdBG4AywtGLIBqKyv/dv38ef/vEf8ZrTU5VtqngeqQ6o+Zr6foXXYsZC2+B5Gk8r7pxWTMb7+2DZyNe+FrG2iYXdhAtyW5Sy/oZV7V+HYyc48eUAcE7PQ1CKakIDYr2aquTMhMftk6owilS8dDOj199bs0QZU6oH4Nfq1W2kEd54doLYJPzs//LzvO/9HyDPd7dLFTbis9gyiCg+8MEP8ou/+IucaQbcPRtXZF9hwPOJo5hoPxk94MZSzsJyjudptFZcnILTE9V0bVRnBiqoihpJbhWMqbaj1OHYDie+HEARdndRr3VUNgZPKWvGXjHnpzwuTCq0r8lSeHkhpZfsXoCVZW0KUGFtu6fvHBHunI65+9QUn33yZX7ox36S3/k3v4fZpYhQCjq9jP/nH/9zfvqnfoqb8/O8+tQkc/WqDFYFvAA/CPe+CAU3Whk3lzKUtlMJzjcV5yoSXlBEvirSB85tYgPKpR4dB4sTXw6gGDDrvvitw6/oDiWCFRxV3/AU3D7rc1sDvNAnzRQvzad0dpmC1Kr0MyvqraraUIEo9HjTqUnaXZ9rN2/yYz/xk/y9H/wRPv3pz+5IhCVpysc+/kn++x/4QX74f/hZvvziAjoI+Ybbp9AVerDhRYRRtDfBreD6Usb8Yo7yNNrXnGvaY1NZGl8V05QqWmBV5/athBuy7ThIXMG9A2PEOdsPo8J7u6lucetQwKVZH61yXm57ZFnOy/MZt835TER626ycCESxwlPWZiQP40rDIt2O4evOTnN2KuJ6O0Fp+P1/90d84KMf481veIC3fu3X8MDrXsup06eo12rkuWGls8LVq1f53GOf58/+08f47ONfottaQcchN9pw91yNt94xab07KkGQIED7HnEEK52daRxrAQHXF1MWWrbGS3uacw3h0tw+qutHYMTaTVRxeFxt5wbETveooinG4dgJTnw5yEVhzN4Ltm9J1PG5CCsFt896QMaVFY88y3n5esptMz6TjdE2FCIQethi8LKRMKiB9iu5C6U5LC9n3DFT4y+/apb3fPoldOTj1SJWVrp86IN/xoc++GcEzRozjQZBFCJG6Pf7LCy1MIk1YlVhgFezo3/yfsbDp6eYrcW2UKeimjwphopPxposzemnW799pWwN1tWbGUudHN/38DyPcw3h9pnqhZczgRkvStkvoZmppqPU4dgOJ74cJIk4h4kNKKoLAImM31NJAXfM+vh+zouLHrmxXZBJLsxM+HgDvk5SZECjQDHdtFGv8uhLEIPW7Lf7wggsLhtyYweT/+3Xn+WPn1/kpaUenqfQnoZCUGVJxrX+AoNhHe15q4KrJM+EO081+d5Xn2ZxMWduSlV0zgomjEF76DxntqlZ7Ar9pGhCUes/G1pBPxWu3MxY6RnCKLD7fwrOTY7vkro6DaqCN62dy/0mBDsD3okvx0Hgar4cJK7LZyiqinCDCOYA3SzPT3q8akYReOBFIdcXc67cTG0nl7LCIYoUMxOKuQmFrwYiXIIdLl1BK1xrxZCWA8BFuDRX4wffdA5y2bRLtafxfB8vDOzfvo/aoAxKY9gfeNM5zk/FJImh1amoPVeKiF/ReaA1zDbs/mnUFIFeex7Acjfn8nVbWxfFIb5S3D2rOTc55ru2gFSk5F3J13D67lroOCCc+DrhCLhh2uPmACJfg5ya0Nx7ShMrO9am0zPML2dEPpya0pxqKmphaaWxQeR4Ecbz930+bIqq5Ibvfs0Zvvt1ZzDdbFeLF8D0M/7m68/y3a85vRqV05WFbgQJI8yGxYUeTNftPjs9pajXFa1OztWbGf1MCKOYSBvuO6051Rz/pbSyCKr7rA9HIMs2fzlwOMaBSzuecPLcji1xKYjxcVAX8/LGrDWcanrMTQgvLRkSqZFlCQutFKV8ZpseSqlNN3ItIIEHno9tEdh7JCcMFKiBFQgECt791kssp4Y/euIaOty+G9CIIL2c/+KBs/zE19xuL1hFsC70qWwigwyz2Cg2zteQZbCykgLCqWkfER9fZVyY8gn12r4f9+fICYPxMThk23epR8eYceLrhJNmtoPKaa/jhxR/2AHgVvBEviL0VXHzEGYbiivLwsvLGlEe1xcTun3D6UmfKNwswPBC8AL2e5sP/aKDUgbOLBEmQ49f+sY7+Qc1j3/+2DWMEXSoN51/RkBSQy3U/K2vucgPvvkCdd9bVTmeFnxfVXbimnDzTMty/uHNtmG+lZFlgh+EKMk5N2k4PxmgtCbNhH4q9NNiALZZe/1RpfQPdmJuPQZ7TfQrM/lzOIbjxNcJx9V7jZ8qL+OD0S1fK6LAFs4HvkKrjcdS4XmKizPWvf7FFiQ6pt3r00tSZic9puoeXhm5EcAP7M8+TwutwfM1+UbTVxEmQ5+f+/q7eMv5Cf7p49f5zNUWabK+fmuqHvLgHU3+29ef5RsuTa/LuYlQOMjvbxvXEa45+6vij14qzC/ntDs5aEUc1fB1xu1THrONtdBIeQxAkeWQZEI/E5LUCrGySP4o3c7Lw+3YTJILtSN1tBy3Ik58nWCkHCjrWh3Hi9p7lGFTdMsvolsBxbfzwaWOPoizTY96LLy0YLiRa1Ae1xYSVrqG2UmfeqRQShDlI360x61dT+ArkmTIcsQKsm+//zTfctcMj1/v8IXrHa53+gRac34i5HVnmtw/W8Pz9NChhkFQ4QmrlO3yxBaiJ0ZYahsWWplNQQUhIjkzUc6FGU3kb1R9a9vie/anHioMNirWS4XkGEXFTjTFNVFENjV9OBxV4sTXCcYYIctdvddIqhClSq1GUnaqZzZGt8IishL6quhSG5xGsPMNjH3Fq05pplbgxUWDF9XoJgkvXU9oNjxmmx5x4EMYVRIWCQNYGfVLAXJD7GseOj/JQxcn1//eYGcuDpt2XNZ7VYXSSFRHgMUVw81WRi8RPN8jjkJ8Mi5Me8w1vR3ubau2NWtRMSmiYmkq9DKx6f5dRsWG9Ec4KqY0zjUGPFf35RgjTnydYFLDgXbhHTeqmmNceiqNNDst/iijW8FgdEvbiNR69p7DUkpxqukxESteWc65vqIRFdBa6dPu5Ew1Q+peTG2/6ksg8O372fIcE6zI2oVrhKcEv6pie5vDZCULeOm6obeSopQijmOQjDP1nLOTHqG/1xWp1T8DLQQx1NEYY9Nb/dSmJ8sbPmwhsBSoKiq1tjgXHcXED6Oc+HKMFSe+TjBp6jKOoxCpTnyNWj6U0S2bRouLYnlbyyQDB6f6IxT5mkuzMFs3vLycs5h7aO1xs2O4LQ2pyT7XqcDTCk8LaV6VGWrh9+XZZVfmbi8e17s+nb4QhxHG5EwEOeenNBNxhXfgAVWlNcQa4kAhaLJcSFO2jIqpwqetivCXEffZH0VpthpXP6jA4VjFia8TTOqK7bemot2jsCmobEPtVjym6NZumIg190WahU7OtbaQJR7EE/bunBfboPe2IxTgB7buqUr1FQS6mvSbUZCD+B5ebQJfKyZC4cyEZqamD6DmZzAqho2KicKIJsmK9GRqrQ9WvwhUOHXBqa/R2Guj2zmO8eHE1wnFmOIC464xI6kqNaMUBKHCFxvpKG0YVjNIY4pu7Wb7ZhseUzXhekfh1+vWbqK8QcseRZiyIrODVBr52nsKsMCo9WlOL6BeCzkzp5mJxUbVDppS6BXRrTiEOFyLiiUppKbC/ei+d41G7LXRGKrtqHU4BnDi64SSSzGX2AmvkaRVDdIDpuuaoZ2JR2j/e1pxWxNYuW7tJrLc/mJQhGnWm6duQxQqokCRZrKvWd3la6NAEYd7XUghutYdBoU2KZfSq6j6WY7OAdkcFVsVwRWQjzOnfsyxQ7btNdJpL8e4cOfWCSVJjPP52YbqowOlteUR5pWX4LknhncZCpBj05E7rAnzPZib1kxPasJCNO1mv5bPDUPF9KRmbnoP/l6i7DaPGqOVG9Rj/wlMvssFHxCqOG8q/KbkKg62RrDXSIdjXDjxdUJx15XtyXM48mKpah77GKT9raNbuxRhSkEtUpya1sxMaaIdiLDyd1GomJnSnJrW1CK1O/1hthFdqysz8JUvweWv7GLhx5iqZkTe4rhrpGOcuLTjCUSwA2RdvdcWKBCzv1TZsePGK/D4JyAzEBUnx1Y3oFKEqZ3XhMWhTRv2E2GlJyT9YrxVsY9FbM1TFCsasVoVajumTI/u5MapAE8gU5Bn8MkPwMVX3fIGT6IUee5mim2J2Hme7hLpGBcu8nUCKYfHnhhRsRekqIs7KRECEfjYn0C/M+CDIVacbPtarNjJlI027eAlUaiYndTMTmtqNbWakK3VFLPTmtlJvXPhJQxEuXYovDT2vZVND7mBpx+Hpx7b2TqPM2Id3EV2dKhOJINDth2OceAiXyeQNGNdtMGxnsEh1YfR+HYoPPFZ+PwnbdQrKKWQrEWHdhpNMrBqk7H6M/oWH/qKcEKRxPY5YbAz8YaogUaAHTy/pIzQbTyugq2y/sDvwW23w8ypXSz0eKEUTDc1SQrdxE65cGzGiBuy7RgfSsRl/08ayx2h3TMunL4BEXvzn21q9GoK7RbfS3kOT34O/vBfQmfF3nE8gQmzWTQN6xbcCYN9BuUyh4mfYY8P/q6sL9ut4Brcho2pUQX0FawUqUZPwfm74Ju+C+541S5XcoyQUoAq5tuGft+NGduIAM1YM1l3O8ZRPU58nUBuLBuS1F1sBymmzDA34eF7t3ilR68D16/Cy8/Clx+H555ab+nvARP56IjVXkXYIMN2b/nYxuXu9wqlGV2PpoC+hpWBCgxPgR/B3a+FV30VnL8E03MQ1/e5IUcRITeK+eWczJUirKP8MnZq0lXnOKrHia8TRm7g+lLuup1YK21SCnxPMd3QBP4tJrzy3Iqt+Wvwygvw0rNw7UW4cdWKK2Ft1kyJxoqv7QroRYHybWXyUUN7VkRJuvXzFNDV9mfd42qtIlb7MHcazlyEc3fCbRdh7izUGrdGcb4ImVEsrZhVc1HgoIYsHGmUgtNTHp7TX46KceLrhNHPhPklc2K+4crqHwVlY562pqKBTzHEWqHL6dbHmTyHG1fgymW48gJcewluXoWVlhUjYDsJtqq29hQ0s+3Fl+dDbRLai2sC7jCvJqupRSCMIQig09raV0EBPQ86G01wB59TnDSD+6/egJkzcOo2OHeHFWZnL0AUV/lUn+GsAAAgAElEQVSODo6irTfNbZ1TPxOyDHIRxAz5HMGJEGciMDelifY7VcHh2IAruD9h2GHaQnWjjg+HTfdTtf6fSpWDiG3RvOeDr8DzFJ628xRXB1gPW8ixRaxZqNZQb8LsGSsIOi1oL0OnbaNBuozsFIX1BrvDRODSvZBdh/aNrYWL9qExCSuLa0KttHo4KCE2rLBfKQgimybstLZdhLnrAXjhJVR3CVVudFEPZdOxFJ4DAdTqMDEFtSY0mvb9aw8kZy1kdAwpvnQEWggiqEd2p+bGuuHbvyEzNjK2+jNwfsjAKTBYw3ecP1WCna/pxJejapz4OmGkuRzAwODxUHpulVEr3wdfWRFVBifK2XieVoX4Wn31wIIYuCMcz30xEs+Hc5fsD6xNUDY59LrQWcG0lsiXFshvzJMtLJC1V0j7mU2j3f1q/Fe/ltqjv0LcmR9tha6wKbdoYvPjasO+LsXY4GN7QQ38Papwv8QL7LapVzYLyCJI1+kJnVRhvvoheMNfR33xU+hrV/BNnyCO8CYa+LOzeFMzqKlpaE7afRTFVnDpWyDluJEN1wZPFwG/1TtFcSyVWlcmKGL92qT4yQ0kRshSK96M4VgKMaUUyRHMqjuOP058nSCMQJKVUa/jk20Wsfe5WqioBQq/iF6NfA9Dy7bU0H/eMqx2r5UojIAxiiyH3PgkNMmjJiY4g5kBc4mBTkJWa5xSgV43IG4ZpmujMrEK/NCKka3OpWFWE7sRYmrD3zvF86E+tflxsdGbhWUb0UAplBfCzCnka78NBJLi/FmLnoIuxH6oFZ6AJ/Zvu29utejpBjaeAGrt4VUXhiHdqo0iJJnl0E+ETt+QmuO1hxTK1sEJJ8d2xnEgOPF1glj9BnrMhFccKSZruuhCHGTE1fCWv0iuv9mXkYbM2JKvxAh5JhizPhqx+ory5rn6B+v3mQL8mG5XIBNmRnV7KR+iPXQAblzXONAeRI1NDxtYFV6qTLv6tbVNGbTFwO63TIBcSFLoIOtEmefbLwKhVngeeFpWo663vCgbZItouq8Fvwb12GO5a+j0js/1B+w1MzeCdn5fjgpx4usEYeu9js9tQIB6TTFd14V6OC5bXhXDRVa+QWTlRe3NKJG18d87IopRCro9IY6EWjRkAWEA4RG1X9CqiMqtp90thFeptHwfwnDLRa0TqQWlKMv6docPijJPKbQPvoagEGW+ZjU9fqJEGayefErBVF3hKUWre3zq4wRIEiGonYBj5TgwnPg6QfSPkZO1CERBIbzg+HchbsVgylBAykJnsSMHByNZ+ZBI1mAtTWW7KWysLrTTHSK+lIKgZrsKy0L9YSgNygOzjeXDblDa1ptlI5apKPLUjU3b1e9tSM9qH7ytxdfIzVj9Yw0RSEWgD337yDpR5vm2jirwBkSZwhb6D6bwbtnzXdGMhdQour3j4zWYGNgs5R2OvePE1wlBOF7DtJWCiXpZm3YMNngPCBQpDchy2wyRG8gzc3AiaxSFZYKdcWcwojfXvIQ121U4CkURWWpAZ6G6bLfnFRYXN0eIvmJD4/W3S1v7JuvPpiC0lhQVspUoS/urjwyIsrX0ZeApfM8KNK1uUQ2mFBOxop8cE79BcUO2HdXjxNcJIc+tk7XaYs7eUaF0lg5v2fZuodODds8Mrck6UJE1irC2+s+yYXJTrVZU3z5q5AXWlqGzSCXqS2GjVfUpK75GobWt+dK+jbqNWrUf2uccAKNFGaT9tc6HUpRFoWKmcWu6e/qeFZr9YzBpQ6ky1e/mPDqq49b8ZDs2kRZpq+NC4MPBNwbIwM94UdpGYgZd9ld/xr72HRBGq5YMWuuiOH0AhRU3W96Mio7IIYXve0fZsFDc3P6pQQh+QLlHtQY9+OVDFdvnH65lhGL98QcbEQ10GfkdFzLk56AQ/GP01d8YIc2Oz/XTcfQ5Rqe/Yz+kOUfkrr4zDmZT1/rjy9RfOd8u9G2X1uYNqmLLFHFov/mnG9NgR4UgXr0f+8GIdx3F20eNgnj7urBdo200bUsU+LHd+KRrX6UgCDTZYK2R54HeW83XONEa4rDCM2ODFYmIopfaiRdghZ6NRrFmPjzm2rMjed6PQtlraG37ZzocO8KJrxNCmnOsihbG1wtlbzZGrHliPxWSVMjNQLdgYSMQR4pmZLsMs9x6hdYruk8rbBF72tnoz3VEiKJVsRQFIzYwqpd36uEoBVGt+pE7Su0g8qVs9E6vr+eKI0WvTPEVlhp4R+syKGKFV3UD3oVOYs/h0Le7r9U1JGUNaPGc0sDY9xWxrwgDK8bGJcSOT78j1v/NRb4cFXK0rjqOsZAbIcuPfm3FIGkK1akSKSboKPop9FIhTQ25WRNbG2usRGyXX3mjNqaIRgReNWaLArVI0e5VGBCqkqAGaHwvGx2BCeu2k3HL5cTgxdUKTFVGvjSQD3+OVrYZYIOwKkVNmhcDtsJ4awF5CChVjvepBkGx0s1J8jWj0FVZt2E1xkC/L/T7YoWYVsShIgoHhFgFB1NEkSZH9IvHEFbrvgxuyLajEpz4OgFk5niNnVMKslzopUIcwJ6u0EWaRYoIVycVksRgzNqYonJdW23HYE2WMTZSVgv3uE0bFu4pIQqPaMt9GCNaE8V6uDYRbDfhlpEvbL2XX203oc0LF+s2+YhSpUJ8RfV1B1IpqMWatF28KKpYGO4TEQiLQe9VLTDN7DVg8EvDlpV6A19AklxIOoLuge8paqEiCoqU/DD1trONoptw7L4QmmK2pees7h0V4MTXCeA4tkkL0FoxhJMeWu9m66UYIQOdxH6Dz4qU4k4E13Z0E6FWYS1OM1L0+3L0Zg74AToIqMdm+MljpHC3N6NDdwobHfP9iiNfWA8v38cO3pPNv0fZgvuN4kogjjUrnQyjsJG5I0Y9Vtb3q4qdpqCbrj//d/ny4ksMJEWKXmubiq5FqvhytLvPZ5YrWt38eF2QKO16IHJ3TUcFuNPoBJAdoy7HEgWkBuZbhplmUf8ysu7Evj8RRT+zAqmfrB/mW8U3bKUo6sN0RakHhe8LUXT0ol/iBUT1iMBLNosrhTUxDWuQ9LZeUK0OqurLjLbCzw9Gr780dw031IYpe9ELI003BXWEHPoFCHxVqbgXUfQrSu8NRsS6faGXWOuFemQbSNbPW924Qvv57WewuJKT58fTw8xeS4/hhjuOHE58nQDyEWUxRx2FtciYbwmNyNaeeN7apU+w7y3NbTFskqyPco3j4m4M9BKhEZdbuD+UQOMIRr+UH1BrxtBvDUnrKSt8whjSbcRXWLdRsm0YTO/uYOuKYvot6s1UMc8nqm8+TEVNVS/DNgQcFQQacenFV01hYS+1gqHqj0J5nNJcWFoR2j0rHCPfdk363lqa04j9jHaLSLTheAovOF7lG46jjRNfjiNNWWu13BHaPVtvMXhR39ilWFWUa/QGQadvaMQVeUMpRegdreiXjcD4xPUQ+oqhRVWeb9N6Wm9tDxXWIOtvfrwIZPb6QicRTG7vap6nqYWKOFKjS4qUtv5caotasnJH1oaLqyhU+D1Iw/hIxDHGEfVCrOAZZ81BeYyMscey11/v3A+sm9ZwZHzs9siRbI5xHEuc+DoBHK2Yyt4oa6bTXNZlNjZ2KY59O7At+/1UiPbaDDCEZqyPzrgVgVrNR201dscLbPRru+2NG9DZ7DBvDNxsGZJkfcgrTYVezzYizExq6wK9KXKlwI9sQf0Ibbj6onC0wWsjViyGR6Tmq+qolwiZsWnyA/tsDKyndO6Hg/+MjpNb4VrqOBq4ptkTwC1wzVuljGwd5jdoEVvMXxlKEXhCXHiKHTZaQ1wPwItG72QvLEbzbBEBNBQF7+ufYwTmlzOSRNYdy8Fj20+Em0tm9K0uCCEMGbmBXrHOYHRaMQ7Bi7eYTXlAlOO0rL1ERWe1gk7/cNNkFb6bI4O+FRSk40jgxNcJQLnW6EopxUGWqwrzEIqJWON5Bz9UaRCRIiUX6NFDs5WyosoPRhfXlRGpoMbG2UStFUOaqm1tPpJUWF4Zoh60Z8VV2Bh9dy9FYb0x0s1TKyGaqB+64FUKJmojQ3h7woiil5hbItp0pHD701ERTnydAG7Z+dSHiDGw0jeVXow9LUzE29RQjRmloF7WHY1ypldY/y6lC/Glh+8H37dO+QNeYFkuO65tU8oa3Sbphh3iaetcv1WxfCn4osZwgawAPOr1qBrT3D0iYl33q0xhg629yo5po81Rxl1LHVXhxNcJwPfU4YZTbkGUsl2PuanWwKoeW4PNw4jGCLZLzRp8KvBrIwreWaulKgXYsCd5ZepyLe3Y6siuUmEi0FoZ2Bmr1dwjOhlLVtOOkZ0/uel5CgKfsB4T+Ie3vz0PJmuaKlW8iKr8i4EDO+d0y0HyDsfOceLrBBD4HOq3+1uVPIeVnlCpshVhqq4OZ+KNQCPShcEnEG8RWYoKfyxdiq8hJ5jnQxCstr31E1tMv5tUWJl+7PYH9rHWWK+vLbavTDuGNVsfNnT7AvDCSkf57AqBiZrG01UqP6GbWld795GvFq3s9AGHowqc+DoBeJ71xzrs2pZbDaWgmxhMldEvpQh82/140MfL8yjmOJadgrXRurJWX3vRqNu88m1hvrKR13ZHtn5PI1SZAO3OQCfoYEpx6HJW/7BNAd6Iaeh+AEFYzHs82OCwFLM9Ky2yp4h6dY/PzMTjggh4vtqyv8Th2A1OfJ0AFHYciLsgV0+eQ7vq6BeKZk0RHWD3Y1lorwejMFvZMJSRL/Tw+Y4Km/Irok7dnmxte6AUnLk0NJWogDS1y7AtdEW0bavRQLpw0fF9K8CG4cfg+SglVnQe1L6mSDfWdcXfiKzrfJpXb6p64lEQ+crtV0dlOPF1QqhH2qUex4BS0ElMxbVf2PRj7eC6H3VZaD+4sq0iX+VYnpHdjkVHpPYQ5dPubGEbUT7/rjfA9Kmhy1MK2t0ck7P2+7g+spNx9WQvLTE2LlOpolvT7uB6NGKA+BhQWOHl6T0OXByBiCq+CDiqRisbqXQ4qsKJrxOC79l6BXdprh6TQ6tnqFQmKTvPcrKux/5tW8S6q4f+BiE1KvJlGIh8jRBfYMWbgk5vBzVIyoPzd8PUbSOXl2WKdtes1ZmFtS2Gehf5IT+wo4iGdmMGxdBvha+F6AAaHUTs4Oxapd2NALYuLs1c1KtqBAh9CFzK0VEhTnydIBo1FzYfB0rZ0SppTsVpJEUthPoB1H/Z2qMNK4lGiBsRK3ygEEIjFho2MEbRTti87EGUgloDTl2AmbOjS8gUdHtClg8U06thnYysdTt6ei1Kt25hWA+ysoiniGyM0xerNFOdrI/qEN07RhTtnutwHAcKaMTuVumoFndGnSAi3w6ndtGv6jEGWt1q00gWxWRdjc39vrSXiAYL7Uu67WGbY7sY46LYvew8HPa8qEarZ8jF3ybqpWDyDNQnrADbwooiN9DuFcsPI9vKO2zpqzl2ZZe78SkCpN0BC/i1odDj28+KmaZCVb4Cod01ZLnTXlUj2CaUKHB71lEtTnydMCZrytV+jYHS9b6bVF18D0qE6bom8McgDMTeXLSS9Q8+/wX4+PuGbQ3Up6A5Xfx3dNoxC+t0+4LazhtJA6cv2H9Pn7UWEFtEv3qJIslYmy859IkDl7aZc5t/bwxcex4+8tvQWSqWLdSj8VwStYKppsLTVCvQRUhzRad/NIay30qIgNaq8GFzOKrFDdY+YXieYrKmWOy42pCqsZYIhijwqhW4yoqjmaZmvmXIK8wuaQ21qOi667XgyjPw5Cfg+ccgzzarPU/Bba+C+mSxADWy27GdRhgDSpd2FCOUowCzF+2/J6ahNgWt6yOfb1C0esJcEFqn+6FvbKBA58J9gAfKrF+kyeCLH4LLX4D7Hoa7X088c55W1U2I2AL7yIfKY1NK0eoau5/dB7pSlILJWK1msB2OKnHi6wRSjzVJbuy35cPemFsIBaQ5tLqGqXq1/k1gi8JnmpqbLVOJOBCBOFkieP6yjXS99CVYvGoFlZHNCkQpW8j+mrcN3OmH1y8lidAlKn6lGSm8yt/P3mb/Hzfh1DlYuQH58NcopUgSoef7xGWUbONTB4d5n74D7nwjPPcXrJu5I9g85vJ1+PTvw+f+GO/MncSnX0tn9l7UzFmb2twnk3VNPVp9sxUidPo24uqEV7UI0IjsxAmHYxw48XVCmaxrcmPchbtilIJuX4gDRRQIld5wlSL0hemmZrG9RwGWJrB0DV76Curyl6j1n4dkYb3gGiZ6yujWg38VLt639viILGurJUjYKLTVVpEvZZ30p0+tPTR3EV54fPR70BoBWplPHEbDlz24czwPHv5rsHgFll6CbIOwNMbWmeVduPIE9Re+RG9RIacvwrn74OL9cOYOaEzuKrwkYptcGnHxPivGGEW76wY4Vk05b3Oy4dKNjvHhxNcJRSuYrmtu5Dl57lIWVWIMLHeEU5N6DPtVEQfCVEOztLKNABOs2GovwNXn4KWn4NqzcONlJLA1ZNGUWitO1wP/HlwGHsydgze8A+776vUnS3sBeivrxEy3LySJoGq1cpNHo8ti+8m1x+bOb1l0j7L2G6kJ6OQ16pr1zxdg+er610yfhr/yd+GT/wGe/Qvod0ZWvIaBwg+FZP4y6uaL8PifQFC3EbRz91pLjLnztulgRE5KsMJrqj6mG7gIS107PNt9dqtDxLqPTB2AxYvjZOPE1wnG82C6qVlY3sYA07ErlII0E5bHkn4Ea0EhwDYCrNOCl5+CGy9Dv22L0M/fCxe+yhqLTvqo+lYFLUWn4OwF6z4fb7BsyHN4/IO2dqpABNpdQbSPiifsg3qgKH9TehCYu2A7KEtmiqJ76Q8PlhX1XEpD25sglg06ygg8/zi89DRcuHft8YlZ+Ka/ATe/2YrQxXkwydB33uhD0srseyw3PM+gswjPPg43XoJzd9n9skGACdbLa2zCC6GbWnsTJ7yqRSuYbmjbGOFwjBEnvk44kW99hxZXjLuQV4gqzEXHkn60a6AWCgp77MywcX71CbjnQbj3wU2v1hriSW/v/c43X4G/+A/w5MfXR716Qpop1G0XYbboMlTbrOTUxfX/n5yF2iS0bjBUfQ0U02cXXkf78p8zOViaJQK9Djz6j+Hh77TO+YOGsbO3rdWYjSAS8Jdy8q0icDLEWkTGHPECcqNY7uSM46w6yYgIU03PDc92HAhOfDmox4okh07fXcyrRIClFcOpSW9Mo2sUcSjMKCvANqWPRxxMKewlPL3D27cIdFuwfBMWXoYXvwTPfR7SzjrhZUwx59L34Y3vXCtW9zwrwGRDfZICjIbZ8+sfjydg9gyszA+vPxsQc+ruN9B94l7q/S/jD7aBikB7ER79dTh9Ce54HZx7FUydhuZsMXNyNFoJUWiHVG85j3IDE3VNszbeT9FSZ8ixduwLwRqp1t0IIccB4cSXAygK8HOh78aTVIbCNtctdgyzzXFFQmxkbbapWWgLWb59KkopaIRbPKnbsrVcN1+BGy/AjRdh4Sp0l0GKFOPGbkilaGeQ6Qj1lu9YH22TIZ2TxbYT12BqbtPDzF60Im8YMhCOiiLyb/g+2n/260x3n19fTF/+feMFuPkC/IVArQn1aWvmOneHTXlOnYKJGZvqXF2HnffY7efbNjbYBDBMNjT1rTXdPhFWui7dWDUCxOXkAYfjgHDiywGAVorpBsy3Icvcxb0qytFDbU9o1mA8sUVF4Atzk5qFtiFJRx8/ETvjM/SVrWHqtaG9BAtX4ObLcP0yLLxk3e29Iq22Kp4GVIguatmK9WTGpzvzKtQ3fgtces36lV59ATCbM4hKwcQcNGc2b+jpi8PrvQSYfxGS/mpkTc2epvfNf4fkKx8gfPZT0JpfaxyQgddpBekKLHeg/Yq1nsgNeLGtBzt1EeZut+nSyVMEtUlCL6SXjh47JGIDe1MNTVz5vMb1b7yfWhsT99msDhE74WGqMY7mGIdjNE58OVbxvEKAtaRqk/YTjVL2pul7mjgcV6WOwlPC3IRmqWvo9kYfwHqs7DTwpetWbC1eh37L5g2bs9a9XsSmCfNCNOUptuh8IHUYhtbtfvoM7Yk7yZu3o/wNBfyLN+Bzfzo88qWBU7cP7xicPWe9utQQW4j5l+FzH4CHvm3t4XiC9hv/GrNvfLvt7Lz+ArRvQndlbYSQ0rbYTeu1f3uFDYbStpZs6YZ1vG9Mw8x5atMX6anG0P1YDiSfbmoCb4wVWCLkolhayTHjW8uJRGuYmfBcgb3jwHHiy7GO0FdM1RRLHae+qkSwtTq+5+GP60at7OD06Zoi1IrlIc7nvmfrvVCeFTizQ0bvbMWGVCMISQa9lkFtPGVeeAI++ttw88pw8WWAO187fD0z56y31tVnN9d9SQ6f+HeQ9ODBd0DcXB3v1GtOE9/9Brj7jZu3eQ+hjVggWMpJN0wVEKBWdDTa0Uzjk0SCYrFtnK3EGJisawLnYO84BJTIOMbIOo47Sx3DSs/Vf1WJjZTA3KSHZkinXLVrI8lgaUVIizRyafpZtf3FfNvQL+uQ8gxeeQ6+8FH48p9Dlg4Mrx7A13DufviOvwv+iEKpJz8Ff/T/2RqvYRYVWsPMeXjg6+HuNyLNKQJPcXqqyjCG0O7Ccses7kOtYbKmD8z9fLFj6GxV+O/YNSLQrLk6L8fh4cSXYyhGhIWWoZ+5NEeViEAUKWabB2HiKBixEbAyDXlqShNUNtxZ6CWwsNCz0a3LX4LnHocrzwL58BFFAJ626cq/+vfgzO2jF28M/Md/BV/4sE13DvX80vYErU/DHa9BLj3A9L33UJ+dXD9iaB/kBq4v5RhjxfNUQxOOY07jJoR2V1juOOFVJbbAHmaantuvjkPDiS/HSHID8y3jCvArRsSmrGYOanyJWFPOJJNq/KfyHFo3kfkXufGlp0kvP4WafxnypBg3NCRSBVbweQomTsPb/ybccd+QJ20gSWzq8vMftv8fFkUbWLbkgj81zemvuh91/h44e6c1bY2H123tCBEWu4JCMVlXqGH+XpVj5zYurWxlNObYLWWB/dykq/NyHC5OfDm2JM2F+SXngF81qynAmjqYQp79CIY8g+Ub1nri6jPwyrNw4zKdVpfFdlHrNWgnsbqa4r2Vc7XDGtz7ELzxW2Dm9C62HXjiE/C5R23npKfsY2aglVEGn66YnNQ0mxrEg/pM4UZ/lxVjU6fXjzPa8XYchOgCEHope5/f6RiJUjA3oQmckarjkHHiy7EtnZ6w1HHfwKtGBJp1xWRtHCOI9klnGa48Y39efhpa123nYJHJMzncuJnZIvCNr9W+TQcGkU0vzp6D8/fA7a+BubN736Z+H648BZefhKvPw/I8JB3IkoEuTNsPqDWcnvGKmd5qbfa2F0A0aYv5z98Dt90Dp0d0XB4KQpLCzfaIqQWOfTHd0NSckarjCODEl2NHLHcMbVf0OxYmappmzNFqZet1rOVCXpiqlvYMAJKx3BHanQ0NGbq0bSh+fB+CmjVSrZo8t9uY9W0qskxHSg4ixXxFe7MF7LYrDzBWOZZRrKgBjal1I4sOD9sksdA25MYJryoRoBlrJuturzqOBk58OXaEiL0p9BInwMbBRE3RjA8oBbkfRMiM4kYrX2c0fxRZSzHB0ZcyQprZiJcbHVQtIlCLFNPOSNVxhHAlh44doZTt8gp85epQxkCrIyz3GDGG5wihoN03mHz7px42q7Mmj4HwSpzwGgulvctkffSUAofjMHDiy7FjPA3TTY3W4AKmFaOg3TEsdY/wfpXCUPWYzBZUCnqJ0E83jEY6UtixQTfLVOMx2K/HhdKTbabp4Wm3Yx1HCye+HLsi8GCyplDuLlE5SsFKT1hYKbpLj5rAVYp2T0a6PRxFRKDVFY6mXXDhk9YuJhEc9ubcYigFU3XFxolXDsdRwIkvx66px5pGrI9sLOE4o4BuT+wNGXV0BJgIab7eLf+IbNlIyl2X5UJy1KJfYn28SjsJJ7yqRYBGrKhF7hbnOJq4gnvHnhDsjaObHM2YwnGnHNo809TjmwW5B3JjzVp7qZClQmYG9KE63K0cHOGotd1/sa8IA4Wnj1ZKb7kY3+WoHqEosK+7AnvH0cWJL8eeMQZutHKy7Gjd2G4VRKz91HRDEwVwVARYGUESUUU0DPqZkGWyOlFonIJM1jYBCg9XrcHzFZFnRVfgWa+vVQPWo3CCik1/LnYM3b770jIORCAIFHNFbarDcVRx4suxL9JcmF92TtzjQrDiYqKuaUQcDRExSJkzE+ssnxkhy60NV5rbf4vIujGPuz5XCgFX2odpZet4PA2+pwg88DyFrakeUGVHCrsvFtprqVtH9SitODWhXZ2X48jjxJdj33T7wqKbQTdWylTKVF2j1dFJQ25isIBJQJS1JjHGDmvPzdroRxHIC2E2iFagKFKFWH9UT1vRpUsPV9av52irGaGb2FSjs5IYLzNNTRy6Hew4+jjx5aiEVsfQcg74Y0XEdptONTXhETUOzfMcYwxBEKz/xaa5j7tkNaClisUJ/X6fNE3J85wwDAnDEN/397iCMSCCKMVyx9DpWdf9rd5+kiT0+wl5nuN5HlFk35NjewSYiDUTzsHecUxw4stRCSLYWpaeE2CjWFpa5sUXX+SZZ77C8y9c5vr16yy3WiT9BKUUjWaDU3NzXLhwnrtf9SruvPMSp0+fxvPWildK76JmrGnW1AEOe15Pnudcu3aNZ555hqeffprLl+376Xa7ZFnG5OQkDz/8MN/6rd/KzMzMvte3uLjIs88+yxNPPMGXv/xlrly5wvLy8ur64jim0WgwNzfHpUuXuP/++7nvvvs4f/78ZiF4IAhpDksrhiTdfIja7RVeuHyZJ554kieffIrnX7jM4uIinW6PXq9HHMfUazGzMzPcccft3H//fbzm1a/m4sULNBr1Q3g/RxcBaqFzsHccL5z4clSGEZhfzoC3VLYAACAASURBVEmHDVs+oSwuLvGxj3+CD/3HD/PpT3+Op595ljzdmT38mbOneMN/9jq+/m1fx9d//du4dMftq78TgShQTDZszdNB7fEXX3yRD3/4w3z4wx/m8ccf5+bNm1s+/zWveQ0///M/z/3337/rdfV6Pf78z/+cRx99lE996lM8++yzu3r95OQkDzzwAG9729t4+9vfzu233779i/ZLIYZXekKrW/h3FYcmzw1f+MIX+aM/fpSP/KeP8dhjX9zxuQAQxCGvf+1X8ba3fi3f8o5v4tWvfvU6YX4SESDwFHMTrsDecbxw4stRKWUBvjnhbt0vvfQyv/O7v8f7fv/f8+WndycahjF7aoZ3vuPtPPK938Mb3vB6YH0UrBEr1BhrwZ544gl+67d+i0cffZT5+fldvfa+++7jPe95D7Ozszt6fqfT4Q//8A/57d/+bT772c/uZXM3MTs7yzvf+U6+53u+Z09CcGcIaa5YXjH0s7VuRmOEj3zko/zGb/5L/vSDHyVL0n2vKapFfOM3fB3/9ff9Vzz88FvQJ9DBvewGnp3QBN7Je/+O440TX47K6SXWJPQkstxq8a//9e/y6+/9DS6/8HLly4/rMd/3yHfzt//Wf8OFC+cBexMKfcVEXREF1d6Erl69ym/+5m/yW7/1WywvL+95OT/5kz/JI488su3zPvaxj/Grv/qrfOpTn9rzurZienqaRx55hEceeYS5ubnKlitipxO0e+u/eDz99Jf5lf/31/jdf/N+ZGNnQQVoT/Nd3/lX+Dvf/99xzz13V778o44rsHccV5z4coyFVsemXU5S9OsvPv0Zfv4X/jc++cnPjH1dd99zJ3//XT/Kt77zHUBhSaFsFCD0qCTs+KEPfYhf/MVf5Jlnntn3st7xjnfwy7/8y3jecA+AhcVFfv2f/BPe+973kmXZvte3Ha9+9at517vexVve8pZ9L8sYuNkyJPlatCtNM/7N772PX/hff5n561unZqvgzNlTvOvHf4i//l3feSJSkSIwWS/qHh2OY4j37ne/+92HvRGOW4/QV+SGE1H/leeGf/6b/4If+fH/ieeefeFA1rlwc5F//x/+iCxNePBNb8L3fXytaNb0vuduJknCr/3ar/EzP/Mzu04xjmJubo5v//ZvHyq+vvKVr/AT73oX73//+zEHNDjyxo0b/MEf/AH1ep0HHngAvc+CoU5fViNei4tL/M8/+3P80i/9Ct1Ot6It3pqVlQ5//OgHWVpa4ME3v4koig5kvYeBCNRizWQNN2PWcWxx4ssxFpSCyFckGbe0t1GSJPzvv/R/8A/+4f9JWkEtz24QET7xyb/g6rUrfO3XfA2zk9G+nfA7nQ4/93M/x3ve855KhdCb3/xm3vGOd2y6WX7uc5/jR3/0R/niF79Y2bp2Sp7nfPSjHyVJEh566KGRUbntKGvt+qlw7do1fuTHfoL3v/+Pq93YHfLZz36eZ575Ml/z8Fuo12+9rkg7dgtmGupE1rk5bh2c+HKMjVKAdVNBbsEC/DTN+Plf+If8o1/7p4e6HV/4wpNcu3aFv/ytbyMK/D3v6F6vx0//9E/zvve9r+IthO///u/n3nvvXffYY489xo/8yI/w4osvVr6+3fDpT3+abrfLww8/vLcImFgj2OdfvMYP/fCP85GPfLz6jdwFzzzzHE8+9f+3d9/hUVX5G8Dfe+/0kk4ggEBQUCk2YJEiXRQLu/5srKLYRWV1XTuLK+q6YkddsbvYXdQFQUXBgghKkyLSEkBKgJBeZyYzc+/5/XETIJTkTjJzM0nez/Pk2TW5Z+6Zxrxz7jnfswVDhwyGy+Vs0r5EkxCArABpXgUKJ9hTM8fwRTEly4Ai6aMCLYmmCTw3/QW88urMpu4KAGDDhixAq8KwoQMbFCBUVcUTTzyBTz/9NOp9GzVqFG666aZaBVB37tyJO++8E7t37476+Rpi7dq1sFgs6NevX+SNJSC/qAJ/+esDWLTop+h3rgF27NiNvXv3YOSI4fFVeLYRJEmfYG+zMHhR89fyZ2ZSk3PaJXidMlpS/Prf7Dl48aXXm7obtbz4+tuYPXt2g9q+9957+OCDD6LaH0VRcP755+Phhx+Gw+E48Pvy8nJMnTo14rpdsTZjxgx89dVXEbcTmsBTz76IBQsWRb9TjTB33td4acYrTd2NqBAAvE4Jjiiv5iVqKlztSKYprtTgrxLNfgL+unXrcdU1N6K4qLTBt9EmPRVdMzvjuOM6wON2IxgKIT+/ANlbt2N3zt6Iim8C+oeTzSbhtO4pmDlzZkS1rNauXYsbrr8e/oAP0IBIZ3opioL09HRkZmYiPT0dTqcTKSkp6Nu371HnUj333HN47bXXIjzLQYmJiTj++OORmZmJ1NRUWK1WVFRUYM+ePcjOzsaePXsiXjFZM1iYnt4OM2fOROfOnQ23nT9/PsZddzcqykMNuuLr9DjRrWsXnHhiN7RNT4fdbkcgEMC+3FxsydqKbdt3IuALRH7DABSrgldnTMc5o0c1qH08qNnXNNnNsQJqORi+yDSqJlBUoSEUbr4rIAOBKlxz3Y1YujTyOlR2px0Xnj8a5405F7179awODgcvCWmaQEVlBbKysvHdd4vwvzmfY0/OPkO3LQTg8UromCRj2IgRmD59uqFtdSoqKnDzzTdjwaJVAACvW4ZdqQ4j9QSx1NRUXHDBBRg+fDi6deuGxMTEeiet//LLL7jhhhsQCEQeJvr374+xY8eiT58+6NChwxGX04QQKC8vR1ZWFhYuXIh58+ahuLj4mLdXE7hUFfAFBapCAskeGeefdx6efPJJQxPwc3Nzcc01E7By/Q6UlEa2tVaPnt1x6cUXYdCgAcjs0gUOx5ErFAOBKmzbtg2Lf1yKWZ/MblDB3hO6ZeLjj95FWlr06pqZRQCwWSWkeGRwfj21JAxfZKqwChSUq9Ca6QrIWR9/irvunhJxu3POGY5bJt6IM04/3fD93r07B2++NRMz3/3I0EhY+zYyvE4JkqTghRdewIgRI+pt8847b+PBqY9jT752YEKz3SbB65TgcgA2RToiiFksFlxyySWYMGECunTpYuzOQF8ZOmnSJPz444+G2wBAly5dMHHiRJxzzjm1Ll/WJzs7G6+//jrmzZt34HeHBi5/UKCiCvD5NYRCeoBt30ZGkseC6dOfx8iRI+s9x3PPPYc3XnsN/qDA7jzN0KX1lLRkTLzxWoy7/FIkJycZvj95+QV4//0P8eobb6OyvNJwOwC4+65JuOP22yJq09T0CvYSUr0SLJxgTy0MwxeZLhASKKnQP+ybk5KSUlx6+Xhs3rzVcBu3143777kDV17x51qjXJGY/9UCTPnHo8jbX3DUvwsBOJxAp7SDIzX9+vXDG2+8AZvNdszbLSwswLhxf8bPa3fB7z84alPzvMiKfinT45Dgsul7SbbPaIfJf/87Ro0cGXF6XrRoEW677baISlgMHz4ckydPRseOHSM6Vw1NU/HZZ59h2rQnUFxSBn9QoLJKwBcQCFcHLkj6SKwQgM0OdGqjoF/fM/DGG2/WGfZ27tyJcePGoaSkBACQU6TBV1n36Ncpp5yMf/3zYZx6au8G3R8AWL5iJe6f/FBEo2Bt0lMxb86sA7siNAcSgOQEBfaWsV6AqBZeRCfTOaz6B3pzC19fL1gYUfBKSPLixelP4poJVzU4eAHAmHNH45UZ05HeNu2of5ckINVTe2Ph1atXY9Uvvxz9BoWAqgEffvIFlqzehUCgdmCQJP1HaEDAL1BQrGF3ngbJ1R5TH38eAwePRFDVN1KvvkH9p44nVFVVzJo1K6LgNXbsWDz11FPGg5cQB/sCQNWAoCpj5Ll/wn1TnkBJ0I29BRpKywRCoUPu6yH3OxQEduVpmP/9Kiz5afmB2zqauXPnHghesgykuKU6g1f//mfgtVf+3ajgBQD9/9APb772Enr3Pslwm/y8Qnw29/NGnddMQgBep8zgRS0Wwxc1CbdDgrMZBbBAoAqz58w1fLzVYcMzTz6Gs0fVf+nPiH59++DpJ/8Ju7P2vCAhALtDgtsh4dBco6oqvvzii6PckkBIk5CTW4GZ781FMFj3E1ATxJJTEvHkk0/ghG49UVKpoahcQ0GpiqIKDWU+AX9Q383gQCCrFYQEflu/Hj8vXWr4/g4ePBhTpkyB2+2ufWdx+I/+az1oAb4qoMQnUFCmoaBMRXG5hgqfwJkDz8K0fz4Cq81aK3AdTTAkUFIq8MY7s+EPajhaACsuKcHnnx8MM5oGuOwSnK6jv6ZP6JaJZ56eFrWRp65dM/HsM08go3264TafzfsCZeXlUTl/LAkALocEN7cOohaM4YuahCRJSHLJsFmlZlGCIisrG8tWrDZ8/O233nhg38VoGT5sKP5y6421fidJQJpXwtFKe/34448oKKh9qVJAQkmFhrXrN+LX9RsML3yYfP9d6HvG6QdHxQQQ1oBAlUCFX7+MXFimIb9URUGZhmKfQJlPwBcAAiFg/oLvUOYPQtP0gCbEsceU2rVrhylTpsDj8UII/Xh9qyp9xwR/UN/EusSnL+AoKFORX6qisExDSaUGn18gGBIHwmhNn8eMOQcTb5xQ732Vqtt898MybNm6F5o48lFau2YNdu2qvZWUDKCNR4J82Dx9i82KqQ8+gM6djqv/gY7ASSd2x4OT74VscC/HTZuy8dv6DVHtQ7QJ6FuTJbj40UQtG1/h1GRqiibKcp1XrOLCkqU/GS7/MGBgX9xw/bUx6ceEq8ejR8/uAKpXOHokeJy1R71qFBQUYMOGQz9sBXx+gVBYYMmSpdBUY5cAzz13BC7+v4uO+H1NSDkwVwz6CFAwJOAPVIeySg25BQF89tUy7NqvYsd+FTtyVezIU7EzT8OuAg27CzTsLqr+KdBw4cXXwJ18HApK9TCXX6qioFRFYZkesIorNJRW6vclUCUQUg++fg7v0+FuvOG6A49ffYoKirB8xRr4AgdH2WosW3ZkFXsNgNMhIcFTe/Rr3KV/xJAhZxk6Z6TOO28MLvrTeYaOFZrA4h+XxKQf0SCEfvk22c2VjdTyMXxRk1JkIMktH3XkJl6EwypWrFhl6FhZkTHxpuvh8bjrP7gBkpISMeGqKwAAigVIT5CPGrwAQNM0/Prrrwf/W0iorNIQCoewes06Q+dTrAquv25CRHPWasJPzc/effuwcXM2hKavMlRVIBQCgkGBgF/A7xfwV+o/HTp2wbljLkQwJBDS9LlpB0bLam7/8HMY7hmQkpKM66+92vDxK1etgq9KqzX65ff78csx5tNpGpDmlWG16f11e924+urxMVvZqygyJlw1/ojL0ceyeu06VFUFY9OZRpJl/ctYA7fYJGpW4vgjj1oLh1WC1xG/FfALi4qQvW27oWNPP60XBg4YENP+jBw5Am0z0pGaIKO+TLRp0yaoqgpAHyUKq0BRYRGytxq7P33POBVnnH5ao/qblZV9RGkECUcJURJwwXmjkZycGHGoisSwYUMNz5XatDkLFZVVCFQdHP3at29fndX5LQqQ6pUhARgy+Ex0P2xPy2jr3bsX/tDX2HO0bduOIy5FxwMhAK9Dgp1bB1ErwfBFccHtlOByxOf8r4KCAuzZm2vo2NFnjzxqscxoSktLw9BBfZHoPvrlxkP9/vvv8Pl8EJBQWSX0fQjz85Gbm2foXMOHDamzXIURO3bsNHScrMgYPGhgo85lRJu0NAw409gejjl79qGsvAyVVQKievQrJyenziKxmgYkuPTJ94MHDYBicE5WQ1ksCoYNHWLo2IKCIuTnx1f4OjjBnh9H1Hrw1U5xI9Epw26NvxWQ+/blGprvpVgVnHFG40aJjLAoEoYNPBVGPtPz8/NRUlKMUFggrOpbO+3L3W9ovpesyDild69G93fv3r2GjmuTnopu3U5o9PnqI0nA6aedaujYgsIilJeVIawKVIX10a/9+/fXWzJDloGMZCtOjcLjZ0Svnj0MTbzXVA3784wFbzMI6PXjEjnBnloZvuIpbkgSkOTS53zEUwCra4uaQyUlJaJ9RmyLWAqh73N3YvfMeke9AL2qfGlpKfxBceAxralNVR+X24W2bds2orfV5ys1tgdmx/YZ8Hg8jT6fEZ0Mrjys8lehrKwcQugV8QFjj5+mAWkpXnTrmmHKa7lNmzR4vMbmGRp9/mNNiOo5ny65We52QdQYDF8UVxQFSIqzfdz27DE2cuP1uJGYmBCzfggBWC0SEpwykpNTjtjb8OhtBHy+gF7Pq/ox9fv9hs7ndNjhdrsa02UIAcMTvBMSEgztpxgNLpfLcImGqqoqSJK+ilPVJOOPn9OFtGSXKaO5brcbDruxy92FhUWx7YxBsqQvtuEEe2qNGL4o7tir6/zEy+hXqcGRG0VRIMdw2aYsA4luCZIkDG2aDQAQAr5AGGHt4AT2SHYUi+X9aW5UFagKHVl2ok5CINGkgCHF0zeWeggBJLj0aQZErRH/ZaW45HLEzwT89HRjK+NCoRBCNfvWRJmAvt2KzQIAEgKBgLEQJaHWJUezSRJgMxgUy8rKqldmxp7P5zNc5+xQgZCA02lsNNDn88EfCMCiCHhjPJm8srISfv+xFwEcKjU1JaZ9qY8A4HbKcDkYvKj1YviiuFXzzbipR8DatTM276m0rNzw/LBICAHYbfoWQjXjV/n5+YaCiqYBVUHErm6DAUlJiYaOy9m7DxUVFTHujW7Xrt0Rt6m59OhJTDZ0fEVFBXJzcwHoG5M77LF7Lefl5aPisHIex5KYaOz5iAUh9An2Xm4dRK0cwxfFLTlOJuCnphgbKSgrLceOncbKKkRCloEEp1TrQcjKyjLUriIgENZEU2YvdOjQwdBx+XmFyM42vnF5QwkBrFlrrMjs4TQNSEpqY6gocDgcPrjDgKTP1YvV5cffNmw0NJInyRLaGhzJjTYhAItF31asGV0hJYoJhi+Ka4oCJHv1f6wjmasUTRkZ7eD0OOs9TmgCS5b8FNVz16xutCo4sGdOOBzGmjVrDLUvD2gRTVGKhczMLoaO01QNPyz+MZZdAQDs378fS5Yub3D7NhnHwek0trJw6dKlB0YoFVnA7Yj+XMZQKIxvv19k6Nj0tmlo29b88CVE9Zcpj8QJ9kRg+KJmwKbUbLTbNF+X09LS0KmDsRIS87/+NqpFLGUZcDtq3/dt27Zh7dq19bYNq4A/IJp8GX+3bicYCq8AMP/rb1BUFP1Lt4da9MNi5O1v2HMkSUBaWlsc16mLoeOXL1+O7OzsmtZw2SVYohw+fl2/HqtW/1r/gQC6ZnZGampqdDtgUIJLgk3hkBcRwPBFzYReAbtpJuAnJSWhx8knGjp2T84+/G/2Z1E5rxD6PCGLXPtef/LJJ/D5fHW2lWUgEBQwaf56ndpnZKB3j5MMHbtt6w7MnjM3Zn0pLCzCm2+906jbsNkd6H1qH0OXHn0+H959990DRVllScBhi97ol6pq+M9/3kEoYKycR5/TT4Pd3rgdCyKlT7CX4HLw44aoBt8N1Gx4nTLsVvOvokkSMGiQ8f0aX37tLWzYuCkq53UethT/119/xezZsw2194WabpXjoex2GwYO6G/4+JdfexNbt26LSV9eefV1bN7cyHllAjij35mQJGP/fM6dOxeLFy8+0NZpR9Q2kp8773PM/fxrQ8dKsoSzBg+KzokNEqjeu5VbBxHVwncENRt6UUYFliaYgD/gzDORkmZslVthfhEe/McjjS5mKct6UdWaS47FJSWYNm0aKivrX9WmaUA9g2OmGjVyBOxOY0VA9+/Lx0MPP4aysvKo9mHevC/w+lvvNv6GJKBXz9PQoYOxKvnhcBjTpk3TN+OWJFhkCdG4+rZx02Y8Nu1pCM3Ym6FHj+7obdJ2R0D1BHsFSHRzgj3R4Ri+qFlRZL0qtsFBh6jp2LEDRg4/y/DxK1euxb33/73BAUwAkCXpwIdWZWUl/vnoo4Ym2svQy0sEg00/36tGr149MXyo8VGXxYt/xpQHp6KsPDoB7Nvvvse9k6ca2qOzPhIAtzcBZ59zvuERrJ07d+L+++/H7t27IUn6KFRjvkBs3boNd951H/bvyzfc5o8Xng+v15ztmwBAViS9gj0/ZYiOwLcFNTs2i74Rr5mrH2VZwmWXXgzFany29IIFi3DLpDuwcdPmRp173759eOCBB/Dll18aayADpX4NBgdETKEoMsZfMS6iKuyz53yJO/92L3btymnweVVVw39nfYLbbr8HFWXRqyEmBHD2mLFISjI2Ggrol4wnTZpkaLFEXX76aRluuHkSNm6ov9xIjbYZbfCnP17YqPNGKsEpwWaJk/RPFGcYvqhZctkluJ2yqfO/+vXti3NHj4iozc8/rcL4q2/Am2+9jeJi4xsaSwACgSrMn/81brjhBixcuNBw21AYqPDFz6hXjYEDB+DsUUMjarNgwSJcefV1mD1nLgKBqojaZmVtxd333o+773kQlQYLkBolSUDbdh3xp4svi7BPWbh54i2YMeO1iAvy5uUXYPrz/8Z1N03Ctq07Imp7zVVXICOjXURtGkoAcDv0lZ1EdHT178xLFKcSXDJUVUPApMtriiJj0q03Y9HinyL6MM/PK8TUh6fho/9+ggsvGIMRw4ciMzMTLpfriH4Hg0Hs35+Hn5ctx5zP5mH75pXwRFANXJaBgjKBcBhxF76sVgv+ctstWPrzyogevx2/78btd9yH/v3/iz+OPR9nnTUYGe3aHbFqT1U1VFZW4rffNuDL+V9h3pcLUFQQu7IVmgZcdPEVWPTtAmzf/ruhNrIM5OYV45HHnsXHs+dh7AXnYcSIYeiamQmHo/acOCGAQCCAbdu24Ztvv8fsOfOwffuuiPt5co9uuPKKcRG3awghAIcN8Lr4vZ6oLgxf1GxJ0CfzhlW11sbRsdSrV0/cNvF6PPnUCxG33bx5KzZvfhHPvfAKunfLxAldM5GamgKXy4VwOIzikhLs2pWDTVuyUVpcBiEAr1cyHL5kGQiEgNIKLe6CV43TTjulwY/f8uWrsXz5angSPOhxUjd06dIJyUlJsFgs8Pl82Je7H1lZW/H7jt2GJ6E3hiQBnoRUTLr9Ltx3z18RCoXrb6QBJX59FeqmjdnYtPF5TH/xFZzU/QR0zeyMtLRU2Gw2BAIBFBQUYuv235G19XfDpSQOZ3XY8MB9dyE5OalB7SNx6AT7OH35EcUNhi9q1hQZSPYqKCxTTVsBee01V2PN2nVYuPCHBrUPB0PYuCGr3jk7kgRUVgiUOwS8LglaHbvHyNCLqu4t1KCq8TfqdahrJlyFFSt/waJFSxvUvqKsAitWrMGKFcaq/MeSpgF9+g/D5VeMxwfvzqz7OZKBMp9AZUXtkdoqfxXWrduAdes2RL1/t996I4YPi+xSb0PJ1e9FTrAnqh/fJtTsWRUgwcQ6Qh6PG49MfRAn9+gW83MJALnFGsr9ArJ85BtWRvWIlyqQk68hWBV/c70O5/V68NijU3Hiicc3dVcaTZKAsAZccdUtGDh45IHn41A1z1tJhcD+ovr3X4yWi/50HibefKNp50t0yYhgPQpRq8bwRS2CyyHB7TCvAn7Hjh3w/HNPoWvXTjE/l6oC+wo17CvW4A8KaEIPZZoA/EGBvBINu/M0BJpB8KrRqVNHPP/ck+jU2dim2/FMAmB3uvHXux/C8b0HoNwvoGr686NqQLlfIKdIw/4irc6RsWgaNWoIHp764BHzyGJBn2Avw8kJ9kSGMXxRi+F1ynCYWAH/5JNOxMsznkePnt1jeh4JgNCA0jKB3QUaduapB352F2goKhXQ4vxS49H07NkDL/97Orp179rUXWk0CUBKagoeffRx9Dh1MHbkqvrPfhV78zVUVJq3LnfMmJF4+snHzZnnBcBpk+CNYFEIETF8UQsiSUCiW4FFNq8Cfo+TT8Lrr7yE0aOHxfxckqSHsHAICAb1/xVa5KHLzPpo9TnllF5487WXcNZZxrcfimfpbdLw/PSnMW7cxVBVQKuu6WpWML7+uivx7NNPIDU1JebnEgKwKhISXFKzC/5ETY3hi1oURQaSPTJkEwOYfgntadx37x1wepymnDMxyQuLzVrvcZIsITEpsdbvPB5jVc5tNhucztjfn8zMLnhlxov4y6QbDd2naMhonx5RwdxIJHi9eOzRh/H0U48itU3sQxAApLdNw9NPPYoHp0yGx+OO+fmE0OeyJbklKNw7iChiDF/U4lirK+Cb+W3c43Fj0m0T8fEHb2PMmJGQY7jk67zzRuHjj97BaAMFS3v1OAmdO9Wel9arV09D+yz2PeNUJCQkNLifkUhI8OLee/6G999+DYMG9YvZeTLap+PhqQ/gX/+canhj7IawWBRcftkl+OSjd3DJJRfGLOgpVgWXXjoWsz58G5dfdgkUk5YaSlL1BHtWsCdqEEnE0zUIoigq92koDwjTaw6FwypWrFiJDz+aha8Wfo+AL9Do25RkCWee2QfXXzsBw4cPhc1qxbp163H1dTfXWUh0xr+fxoUXnl/rd6qq4aGpj+Dtd/57zHZ2px3vv/M6+v8hdkHoWPz+AL755lu8+8FHWLbsl6jU7OrQMQOXX3oRLv6/i9CpU0esXPULLrnsamhq/TPgZ300EwMGNPyyqKYJLF++Au+9/yHmL/y+wTW7DmV32nH+mFEYf+Wf0a9vn0bfXiQEAK9DYiFVokZg+KIWSwigpEKDP2R+AAP0D91Nmzbhm2+/x9Kfl2H9b5sj2l9QVmQcd1x7DDizH84952wMGjjwiNVr3y/6AVP+8Sh27dxT6/cWmxV33j4Rt9068aijIfn5Bbjrngfw/fdLjvib3WnHg5PvxoSrxxvuaywEAlVYtnw55n+1AMuWrcSOnTmGwlKN5JRE9O1zGkYMH4pRI0egXbu2B/62fMVKXDbuGlPCVw1NE/j11/X46usF+HHJT9i4eSvCwZDh9laHDT1P6o4hZw3E6LNHiM1jPQAACnlJREFU4ZRTeps+10oAcFolJHlZSJWoMRi+qEXTBFBYpiLUxNvtBINB5ObmYfOWLdi6dRtycnJQVFyCykofwuEQJEmC3W6Hx+1G27bpyMzsgu7du6HbCScg6bA5W4fbtSsHn/5vNtas/RVCCHTN7Izzzx+DP/TrW2e7iopK/HfWJ1j4zbfYsTMHDocdPU8+EVdeMQ4DB54ZvTsfBaWlZdiSlYVNmzYjO3srcvfnobi4BJU+H4QQsFltSEjwIi0tBV06d8bJJ5+EXj17ICMj46jhsynC16H8/gC2b9+ODRs3ISsrGzl79qKouBiVFZUIqyosigK3x42U5GR07NAeJ57YHT179kBmly5wOh1R7YtRAnpNvdQEBZzmRdQ4DF/U4oVVoMDECvhGCQGEwiEITa/PJcsKLJaGzw0KhcIQELBZI5u0HghUwefzQVEUJCQkNIuVa6qqIRgMIhzW77MsybDZrLDZbPU3BrB48RJceZWxAqT/+/S9mF/aEwKoqqpCKBQ6cH8sFgvsdnvcPB+SBKQlKGjES5SIqnF7IWrxLAqQ5JZRXGFedXEjJAkRB6W6WK0Nezs7HHZTinFGk6LIjRoB2peba+w8VsXw6tDGkKT4fx6S3DKDF1GUMHxRq+CwSfA4ZZT74nfT6dairLwcCxd+i59+XoaSklK0z2iHoUOH4KzBg2C3Gxu5aqwNGzYaOi41JRmJJq34jFdCAF6XDIeNbxyiaGH4olbD45AQViX4m9E2PC3Nli3ZmDzloSM2xZ759kf449hz8fDUB2NeILSsvBxLflpu6NgOHTJMK7cRjwQAp12Cx8E3DFE0MXxRq1FTm0jVNATDTbMCsjUrKCjEHX+7Bxt+23LUv3829yvIsoxnnn6iwZdQjVi16hds27bD0LHHd+0Ctzv2RUvjkQBga4KaeUStAQu1UKsiy0CiWzK1Aj7p5nw275jBq8bsOV/ih8U/xqwPwWAQ77zzgeGSFX3OOL1VBo+aCvY17xUiii6+rajVsSoSEp38Nm+mcFjF4h+XGjr2hX+/jLLy8pj0Y/acufj2O2PhzulxNkmR2XggSUCiU4ZV4ZuEKBYYvqhVqpnHwsEvc6iqiuLiEkPHrlm9HjNmvAotCpXtD5WVtRXPPPei4eP/0Od0dO7cqf4DWxgBfX6k087gRRQrDF/UanldMpw2BjAzWCwWtG3bxvDxL814E+++937Uzr97dw7+dvf92Lc3z3CbsReeZ7huWEshADhtEjxOBi+iWGL4olYt0SXBapE4/yvGFEXG8GFDImrz0CPT8PIrryMUCjfq3Js2b8Gtk+7EunUbDLc5/oQuGH32qEadt7kRArBa9PeExGvyRDHF8EWtmixLSHHLkBVOwI+1c88ZjRO6ZRo+Xg2p+Nfjz+Le+ydj+/bfIz5fIFCFWR9/iquuuRFr1/4WUdvrrhlf77ZOLYkQArICpLgVyNw7iCjmuL0QEYCqkEBReXxVwG+JZs+Zi9vvuC/idm0z2uDKcZdizJhz0LVrZp07AxQWFmHFipV4/8NZ+OGHnyI+V//+Z+A/b74Krzf2le3jSbJbhoPzvIhMwfBFVK3CL1Dm11j/K4aCwSD+csdd+PLLbxrU3u11o8/pp+C0U3uja9dMpKamQJEV+Px+5OTswcZNm7Bm7XpkZ21v0O07XA588O4bMd/LMZ4IAAlOmfO8iEzE8EVUTQigxKfpFfCbujMt2O+/78Cfx1+HPTn7mrorR3jg/jtx6y03NXU3TFNTwT6J87yITMU5X0TVJAlIcEqwW7gCMpYyM7tg2r+mwulxNnVXarn44gtw3bUTmrobphEA7BYJiU4GLyKzMXwRHUKRJSS6ZVbAj7FhQ4dg6pT7oFiVpu4KAGDIkAF48O8PwOGwN3VXTHGwgr3MCfZETYDhi+gwFgVI4odSzF3x58vx6NTJsNiOPXneDMOGDcKzzzwR8w2944kk6a9xS3xkX6JWh+GL6CgcVgleJ+t/xdpV46/AC88+juSUpinrcMklF+KF6U+jbbrxArDNnRCA1ynBYeWXC6Kmwgn3RHUoqdTgCwjuAxljq35Zjcf+9SRWrVpnyvncXjfuvP0WXHvt1XWWrWhp9An2QLKbQ15ETYnhi6gOmgCKyjUEw1wBGWtlZeV4/Y238Nbb76OsJDYbawP6/K6/3nFbqyonAejBy2aRkOrlpvJETY3hi6geYVWgsFyDqoIfWibYsGEjZr7zHuZ9sQCV5ZVRu93T+/TGtVePxzmjz4bLFV8rLWNNCEBRJKR6JVgUvoiJmhrDF5EBVWGB4nKNc8BMtHHTZnz55Vf46utvsHX7DqghNeLbSG2TgkFn9sPYsRdg4IAzW13V+hqSBCR7ZdgtDF5E8YDhi8igyoBAqY8V8M1WVl6OLVuysHr1Wvz22wZkbd2G/XkFCASqUFUVhBAarFYr7HYbEhO86NypI3r2OBmnnXoKevfujU6dOjb1XWhSAkCiS4bbwVcuUbxg+CKKQEmlBh8r4DepQKAKpaWlKC8vR3l5BULhEDweDzxuDxITE+DxeKAoXMgN6MHLZZeQ5ObjQRRPGL6IIqBPwFcRDHH+F8U3IQCbFUjxKmDJOqL4wq9DRBGQJX2ZvqKwAj7FL32Cvf5aZfAiij8MX0QRUmoq4PNDjeKUXF3BXmE5L6K4xPBF1AB2q4QEF98+FJ8SXDLsrGBPFLf46UHUQC6HBLdDAq8+UrwQANwOGS6ubCSKawxfRI3gdcpw2RnAqOnVrGz0uhi8iOIdVzsSNZIQQLlfoMKvcQUkNQkhAI9Thtcp8TVI1AwwfBFFiS8gUObToAGsA0amENBfa4kuXmokak4YvoiiKKQKlFZqCIb0/+YoBMVCzb/aNiuQ6JZh5X6NRM0KwxdRlAkB+KsEKgIawtXbETKEUTTU/GtttUhw2wGnXeZri6gZYvgiihEhAH9QwB8UCIUEtAN/YBgjY0TNdUXoq6OsFglOO+C0MXQRNWcMX0QmCKsCVUEgqAqEVUAVAIRglXw6KgkAZMAiS1BkwG6RYLNKsLBoKlGLwPBFZDJNCAghQYjq/9/UHToGicsG6hGbZ06SJL0GkATIMhdvELVEDF9EREREJmKRVSIiIiITMXwRERERmYjhi4iIiMhEDF9EREREJmL4IiIiIjIRwxcRERGRiRi+iIiIiEzE8EVERERkIoYvIiIiIhMxfBERERGZiOGLiIiIyEQMX0REREQmYvgiIiIiMhHDFxEREZGJGL6IiIiITMTwRURERGQihi8iIiIiEzF8EREREZmI4YuIiIjIRAxfRERERCZi+CIiIiIyEcMXERERkYkYvoiIiIhMxPBFREREZCKGLyIiIiITMXwRERERmYjhi4iIiMhEDF9EREREJmL4IiIiIjIRwxcRERGRiRi+iIiIiEzE8EVERERkIoYvIiIiIhMxfBERERGZiOGLiIiIyEQMX0REREQmYvgiIiIiMhHDFxEREZGJGL6IiIiITMTwRURERGQihi8iIiIiEzF8EREREZmI4YuIiIjIRAxfRERERCZi+CIiIiIyEcMXERERkYkYvoiIiIhMxPBFREREZKL/B/bqq4P6OmLnAAAAAElFTkSuQmCC;clipPath=inset(8.85% 23.33% 10.77% 19.33% round 5%);" parent="UvF73-Ho9JUrgIxbKxk_-4" vertex="1">
          <mxGeometry x="18" y="98.37" width="33.01" height="32.25" as="geometry" />
        </mxCell>
        <mxCell id="UvF73-Ho9JUrgIxbKxk_-27" value="Monitoring" style="strokeColor=inherit;fillColor=inherit;gradientColor=inherit;shape=rect;html=1;fontStyle=1;whiteSpace=wrap;align=center;spacingLeft=0;" parent="UvF73-Ho9JUrgIxbKxk_-4" vertex="1">
          <mxGeometry x="16" y="147.5" width="107" height="40" as="geometry" />
        </mxCell>
        <mxCell id="UvF73-Ho9JUrgIxbKxk_-98" value="RBAC&lt;br&gt;Controller" style="strokeColor=inherit;fillColor=inherit;gradientColor=inherit;shape=rect;html=1;fontStyle=1;whiteSpace=wrap;align=center;spacingLeft=0;" parent="UvF73-Ho9JUrgIxbKxk_-4" vertex="1">
          <mxGeometry x="16" y="199.5" width="107" height="40" as="geometry" />
        </mxCell>
        <mxCell id="UvF73-Ho9JUrgIxbKxk_-16" value="AWS Certificate&lt;br&gt;Manager" style="sketch=0;outlineConnect=0;fontColor=#232F3E;gradientColor=none;strokeColor=#232F3E;fillColor=#ffffff;dashed=0;verticalLabelPosition=bottom;verticalAlign=top;align=center;html=1;fontSize=12;fontStyle=0;aspect=fixed;shape=mxgraph.aws4.resourceIcon;resIcon=mxgraph.aws4.certificate_manager;" parent="bMmaYWXWFNeqYN8dCqb4-5" vertex="1">
          <mxGeometry x="1033" y="111" width="60" height="60" as="geometry" />
        </mxCell>
        <mxCell id="UvF73-Ho9JUrgIxbKxk_-18" value="&lt;p style=&quot;margin: 4px 0px 0px;&quot;&gt;&lt;b&gt;Production Namespaces&lt;/b&gt;&lt;/p&gt;" style="shape=rect;align=center;html=1;overflow=fill;whiteSpace=wrap;recursiveResize=0;dashed=1;dashPattern=8 8;spacingLeft=0;spacingRight=0;labelBorderColor=none;labelPosition=center;verticalLabelPosition=middle;verticalAlign=middle;fillColor=#f5f5f5;fontColor=#333333;strokeColor=#00FF00;spacingTop=0;strokeWidth=2;" parent="bMmaYWXWFNeqYN8dCqb4-5" vertex="1">
          <mxGeometry x="522" y="155" width="417" height="99" as="geometry" />
        </mxCell>
        <mxCell id="UvF73-Ho9JUrgIxbKxk_-20" value="Front End&lt;br&gt;nginx" style="strokeColor=inherit;fillColor=inherit;gradientColor=inherit;shape=rect;html=1;fontStyle=1;whiteSpace=wrap;align=center;" parent="UvF73-Ho9JUrgIxbKxk_-18" vertex="1">
          <mxGeometry x="34" y="31" width="107" height="52" as="geometry" />
        </mxCell>
        <mxCell id="UvF73-Ho9JUrgIxbKxk_-38" value="Back End&lt;br&gt;&lt;div&gt;Database&lt;/div&gt;" style="strokeColor=inherit;fillColor=inherit;gradientColor=inherit;shape=rect;html=1;fontStyle=1;whiteSpace=wrap;align=center;" parent="UvF73-Ho9JUrgIxbKxk_-18" vertex="1">
          <mxGeometry x="152" y="31" width="107" height="52" as="geometry" />
        </mxCell>
        <mxCell id="UvF73-Ho9JUrgIxbKxk_-89" value="Monitoring" style="strokeColor=inherit;fillColor=inherit;gradientColor=inherit;shape=rect;html=1;fontStyle=1;whiteSpace=wrap;align=center;" parent="UvF73-Ho9JUrgIxbKxk_-18" vertex="1">
          <mxGeometry x="270" y="31" width="107" height="52" as="geometry" />
        </mxCell>
        <mxCell id="UvF73-Ho9JUrgIxbKxk_-24" style="edgeStyle=orthogonalEdgeStyle;rounded=0;orthogonalLoop=1;jettySize=auto;html=1;startArrow=classic;startFill=1;strokeColor=#FF0000;strokeWidth=2;exitX=1.012;exitY=0.262;exitDx=0;exitDy=0;exitPerimeter=0;" parent="bMmaYWXWFNeqYN8dCqb4-5" source="UvF73-Ho9JUrgIxbKxk_-12" target="UvF73-Ho9JUrgIxbKxk_-16" edge="1">
          <mxGeometry relative="1" as="geometry">
            <mxPoint x="446" y="269" as="sourcePoint" />
            <Array as="points">
              <mxPoint x="472" y="275" />
              <mxPoint x="472" y="138" />
            </Array>
          </mxGeometry>
        </mxCell>
        <mxCell id="UvF73-Ho9JUrgIxbKxk_-28" value="&lt;p style=&quot;margin: 4px 0px 0px;&quot;&gt;&lt;b&gt;Staging Namespaces&lt;/b&gt;&lt;/p&gt;" style="shape=rect;align=center;html=1;overflow=fill;whiteSpace=wrap;recursiveResize=0;dashed=1;dashPattern=8 8;spacingLeft=0;spacingRight=0;labelBorderColor=none;labelPosition=center;verticalLabelPosition=middle;verticalAlign=middle;fillColor=#f5f5f5;fontColor=#333333;strokeColor=#007FFF;strokeWidth=2;" parent="bMmaYWXWFNeqYN8dCqb4-5" vertex="1">
          <mxGeometry x="520" y="269" width="417" height="99" as="geometry" />
        </mxCell>
        <mxCell id="UvF73-Ho9JUrgIxbKxk_-29" value="Front End&lt;div&gt;nginx&lt;/div&gt;" style="strokeColor=inherit;fillColor=inherit;gradientColor=inherit;shape=rect;html=1;fontStyle=1;whiteSpace=wrap;align=center;" parent="UvF73-Ho9JUrgIxbKxk_-28" vertex="1">
          <mxGeometry x="35.5" y="29" width="107" height="52" as="geometry" />
        </mxCell>
        <mxCell id="UvF73-Ho9JUrgIxbKxk_-41" value="Back End" style="strokeColor=inherit;fillColor=inherit;gradientColor=inherit;shape=rect;html=1;fontStyle=1;whiteSpace=wrap;align=center;" parent="UvF73-Ho9JUrgIxbKxk_-28" vertex="1">
          <mxGeometry x="155" y="29" width="107" height="52" as="geometry" />
        </mxCell>
        <mxCell id="UvF73-Ho9JUrgIxbKxk_-42" value="Live Testers" style="strokeColor=inherit;fillColor=inherit;gradientColor=inherit;shape=rect;html=1;fontStyle=1;whiteSpace=wrap;align=center;" parent="UvF73-Ho9JUrgIxbKxk_-28" vertex="1">
          <mxGeometry x="274.5" y="29" width="107" height="52" as="geometry" />
        </mxCell>
        <mxCell id="UvF73-Ho9JUrgIxbKxk_-30" value="&lt;p style=&quot;margin: 4px 0px 0px;&quot;&gt;&lt;b&gt;Development Namespaces (Ad-Hoc)&lt;/b&gt;&lt;/p&gt;" style="shape=rect;align=center;html=1;overflow=fill;whiteSpace=wrap;recursiveResize=0;dashed=1;dashPattern=8 8;spacingLeft=0;spacingRight=0;labelBorderColor=none;labelPosition=center;verticalLabelPosition=middle;verticalAlign=middle;fillColor=#f5f5f5;fontColor=#333333;strokeColor=#00FFFF;strokeWidth=2;" parent="bMmaYWXWFNeqYN8dCqb4-5" vertex="1">
          <mxGeometry x="518" y="382" width="417" height="99" as="geometry" />
        </mxCell>
        <mxCell id="UvF73-Ho9JUrgIxbKxk_-31" value="Front End&lt;div&gt;nginx&lt;/div&gt;" style="strokeColor=inherit;fillColor=inherit;gradientColor=inherit;shape=rect;html=1;fontStyle=1;whiteSpace=wrap;align=center;" parent="UvF73-Ho9JUrgIxbKxk_-30" vertex="1">
          <mxGeometry x="37.5" y="27" width="107" height="52" as="geometry" />
        </mxCell>
        <mxCell id="UvF73-Ho9JUrgIxbKxk_-90" value="Back End" style="strokeColor=inherit;fillColor=inherit;gradientColor=inherit;shape=rect;html=1;fontStyle=1;whiteSpace=wrap;align=center;" parent="UvF73-Ho9JUrgIxbKxk_-30" vertex="1">
          <mxGeometry x="155" y="27" width="107" height="52" as="geometry" />
        </mxCell>
        <mxCell id="UvF73-Ho9JUrgIxbKxk_-91" value="App Testers" style="strokeColor=inherit;fillColor=inherit;gradientColor=inherit;shape=rect;html=1;fontStyle=1;whiteSpace=wrap;align=center;" parent="UvF73-Ho9JUrgIxbKxk_-30" vertex="1">
          <mxGeometry x="273" y="27" width="107" height="52" as="geometry" />
        </mxCell>
        <mxCell id="UvF73-Ho9JUrgIxbKxk_-32" style="edgeStyle=orthogonalEdgeStyle;rounded=0;orthogonalLoop=1;jettySize=auto;html=1;exitX=1.007;exitY=0.302;exitDx=0;exitDy=0;entryX=0;entryY=0.5;entryDx=0;entryDy=0;strokeColor=#00FF00;strokeWidth=2;startArrow=classic;startFill=1;exitPerimeter=0;" parent="bMmaYWXWFNeqYN8dCqb4-5" source="UvF73-Ho9JUrgIxbKxk_-4" target="UvF73-Ho9JUrgIxbKxk_-18" edge="1">
          <mxGeometry relative="1" as="geometry">
            <Array as="points">
              <mxPoint x="493" y="299" />
              <mxPoint x="493" y="204" />
            </Array>
          </mxGeometry>
        </mxCell>
        <mxCell id="UvF73-Ho9JUrgIxbKxk_-33" style="edgeStyle=orthogonalEdgeStyle;rounded=0;orthogonalLoop=1;jettySize=auto;html=1;entryX=0;entryY=0.5;entryDx=0;entryDy=0;strokeColor=#007FFF;strokeWidth=2;startArrow=classic;startFill=1;" parent="bMmaYWXWFNeqYN8dCqb4-5" target="UvF73-Ho9JUrgIxbKxk_-28" edge="1">
          <mxGeometry relative="1" as="geometry">
            <mxPoint x="465" y="352" as="sourcePoint" />
          </mxGeometry>
        </mxCell>
        <mxCell id="UvF73-Ho9JUrgIxbKxk_-34" style="edgeStyle=orthogonalEdgeStyle;rounded=0;orthogonalLoop=1;jettySize=auto;html=1;exitX=0.993;exitY=0.68;exitDx=0;exitDy=0;entryX=0;entryY=0.5;entryDx=0;entryDy=0;strokeColor=#00FFFF;strokeWidth=2;startArrow=classic;startFill=1;exitPerimeter=0;" parent="bMmaYWXWFNeqYN8dCqb4-5" source="UvF73-Ho9JUrgIxbKxk_-4" target="UvF73-Ho9JUrgIxbKxk_-30" edge="1">
          <mxGeometry relative="1" as="geometry">
            <Array as="points">
              <mxPoint x="492" y="394" />
              <mxPoint x="492" y="432" />
            </Array>
          </mxGeometry>
        </mxCell>
        <mxCell id="uAd7L6xz1dplvV16aioT-3" value="&lt;div&gt;&lt;/div&gt;&lt;div&gt;&lt;br&gt;&lt;/div&gt;" style="rounded=1;whiteSpace=wrap;html=1;align=left;fillColor=#d5e8d4;strokeColor=#82b366;" parent="1" vertex="1">
          <mxGeometry x="40" y="127" width="1150" height="227" as="geometry" />
        </mxCell>
        <mxCell id="uAd7L6xz1dplvV16aioT-6" value="GitHub" style="verticalLabelPosition=bottom;html=1;verticalAlign=top;align=center;strokeColor=none;fillColor=#00BEF2;shape=mxgraph.azure.github_code;pointerEvents=1;fontSize=14;" parent="1" vertex="1">
          <mxGeometry x="50" y="144" width="70" height="70" as="geometry" />
        </mxCell>
        <mxCell id="uAd7L6xz1dplvV16aioT-8" value="Internet" style="image;aspect=fixed;perimeter=ellipsePerimeter;html=1;align=center;shadow=0;dashed=0;spacingTop=-7;image=img/lib/active_directory/internet_globe.svg;fontSize=14;spacingBottom=0;verticalAlign=top;" parent="1" vertex="1">
          <mxGeometry x="560" y="-70" width="110" height="110" as="geometry" />
        </mxCell>
        <mxCell id="uAd7L6xz1dplvV16aioT-11" style="edgeStyle=orthogonalEdgeStyle;rounded=0;orthogonalLoop=1;jettySize=auto;html=1;startArrow=classic;startFill=1;strokeWidth=2;strokeColor=#FF0000;" parent="1" source="bMmaYWXWFNeqYN8dCqb4-5" target="uAd7L6xz1dplvV16aioT-8" edge="1">
          <mxGeometry relative="1" as="geometry">
            <Array as="points" />
          </mxGeometry>
        </mxCell>
        <mxCell id="uAd7L6xz1dplvV16aioT-78" value="" style="group;fontSize=24;" parent="1" vertex="1" connectable="0">
          <mxGeometry x="167" y="202" width="960" height="203" as="geometry" />
        </mxCell>
        <mxCell id="uAd7L6xz1dplvV16aioT-27" value="PRODUCTION&amp;nbsp;&lt;div&gt;REPOSITORY&lt;/div&gt;" style="rounded=0;whiteSpace=wrap;html=1;strokeColor=#00FF00;fontSize=16;" parent="uAd7L6xz1dplvV16aioT-78" vertex="1">
          <mxGeometry x="710" width="220" height="80" as="geometry" />
        </mxCell>
        <mxCell id="uAd7L6xz1dplvV16aioT-28" value="&lt;div&gt;STAGING&amp;nbsp;&lt;/div&gt;&lt;div&gt;REPOSITORY&lt;/div&gt;" style="rounded=0;whiteSpace=wrap;html=1;strokeColor=#007FFF;fontSize=16;" parent="uAd7L6xz1dplvV16aioT-78" vertex="1">
          <mxGeometry x="355" width="220" height="80" as="geometry" />
        </mxCell>
        <mxCell id="uAd7L6xz1dplvV16aioT-29" value="DEVELOPMENT REPOSITORY" style="rounded=0;whiteSpace=wrap;html=1;strokeColor=#00FFFF;fontSize=16;" parent="uAd7L6xz1dplvV16aioT-78" vertex="1">
          <mxGeometry width="220" height="80" as="geometry" />
        </mxCell>
        <mxCell id="uAd7L6xz1dplvV16aioT-44" style="edgeStyle=orthogonalEdgeStyle;rounded=0;orthogonalLoop=1;jettySize=auto;html=1;entryX=0.62;entryY=1.008;entryDx=0;entryDy=0;entryPerimeter=0;exitX=0.5;exitY=1;exitDx=0;exitDy=0;" parent="uAd7L6xz1dplvV16aioT-78" source="uAd7L6xz1dplvV16aioT-27" target="uAd7L6xz1dplvV16aioT-28" edge="1">
          <mxGeometry relative="1" as="geometry">
            <Array as="points">
              <mxPoint x="820" y="102" />
              <mxPoint x="491" y="102" />
            </Array>
          </mxGeometry>
        </mxCell>
        <mxCell id="uAd7L6xz1dplvV16aioT-45" value="Fork" style="edgeLabel;html=1;align=center;verticalAlign=middle;resizable=0;points=[];fontSize=18;labelBorderColor=none;" parent="uAd7L6xz1dplvV16aioT-44" vertex="1" connectable="0">
          <mxGeometry x="-0.0285" y="1" relative="1" as="geometry">
            <mxPoint x="-16" y="-1" as="offset" />
          </mxGeometry>
        </mxCell>
        <mxCell id="uAd7L6xz1dplvV16aioT-52" style="edgeStyle=orthogonalEdgeStyle;rounded=0;orthogonalLoop=1;jettySize=auto;html=1;entryX=0.5;entryY=0;entryDx=0;entryDy=0;" parent="uAd7L6xz1dplvV16aioT-78" source="uAd7L6xz1dplvV16aioT-28" target="uAd7L6xz1dplvV16aioT-27" edge="1">
          <mxGeometry relative="1" as="geometry">
            <Array as="points">
              <mxPoint x="490" y="-25" />
              <mxPoint x="820" y="-25" />
            </Array>
          </mxGeometry>
        </mxCell>
        <mxCell id="uAd7L6xz1dplvV16aioT-55" value="Pull Request" style="edgeLabel;html=1;align=center;verticalAlign=middle;resizable=0;points=[];fontSize=18;" parent="uAd7L6xz1dplvV16aioT-52" vertex="1" connectable="0">
          <mxGeometry x="-0.0753" relative="1" as="geometry">
            <mxPoint as="offset" />
          </mxGeometry>
        </mxCell>
        <mxCell id="uAd7L6xz1dplvV16aioT-43" style="edgeStyle=orthogonalEdgeStyle;rounded=0;orthogonalLoop=1;jettySize=auto;html=1;entryX=0.5;entryY=1;entryDx=0;entryDy=0;exitX=0.409;exitY=1.009;exitDx=0;exitDy=0;exitPerimeter=0;" parent="uAd7L6xz1dplvV16aioT-78" source="uAd7L6xz1dplvV16aioT-28" target="uAd7L6xz1dplvV16aioT-29" edge="1">
          <mxGeometry relative="1" as="geometry">
            <Array as="points">
              <mxPoint x="445" y="102" />
              <mxPoint x="110" y="102" />
            </Array>
          </mxGeometry>
        </mxCell>
        <mxCell id="uAd7L6xz1dplvV16aioT-46" value="Fork" style="edgeLabel;html=1;align=center;verticalAlign=middle;resizable=0;points=[];fontSize=18;labelBorderColor=none;" parent="uAd7L6xz1dplvV16aioT-43" vertex="1" connectable="0">
          <mxGeometry x="-0.0566" y="3" relative="1" as="geometry">
            <mxPoint x="-4" y="-3" as="offset" />
          </mxGeometry>
        </mxCell>
        <mxCell id="uAd7L6xz1dplvV16aioT-50" style="edgeStyle=orthogonalEdgeStyle;rounded=0;orthogonalLoop=1;jettySize=auto;html=1;entryX=0.383;entryY=0.003;entryDx=0;entryDy=0;entryPerimeter=0;" parent="uAd7L6xz1dplvV16aioT-78" source="uAd7L6xz1dplvV16aioT-29" target="uAd7L6xz1dplvV16aioT-28" edge="1">
          <mxGeometry relative="1" as="geometry">
            <Array as="points">
              <mxPoint x="110" y="-24" />
              <mxPoint x="439" y="-24" />
            </Array>
          </mxGeometry>
        </mxCell>
        <mxCell id="uAd7L6xz1dplvV16aioT-54" value="Pull Request" style="edgeLabel;html=1;align=center;verticalAlign=middle;resizable=0;points=[];fontSize=18;" parent="uAd7L6xz1dplvV16aioT-50" vertex="1" connectable="0">
          <mxGeometry x="-0.0041" y="-1" relative="1" as="geometry">
            <mxPoint x="15" as="offset" />
          </mxGeometry>
        </mxCell>
        <mxCell id="uAd7L6xz1dplvV16aioT-57" style="edgeStyle=orthogonalEdgeStyle;rounded=0;orthogonalLoop=1;jettySize=auto;html=1;entryX=0;entryY=0.25;entryDx=0;entryDy=0;strokeColor=#00FFFF;strokeWidth=2;" parent="1" source="uAd7L6xz1dplvV16aioT-29" target="uAd7L6xz1dplvV16aioT-8" edge="1">
          <mxGeometry relative="1" as="geometry">
            <Array as="points">
              <mxPoint x="262" y="-40" />
            </Array>
          </mxGeometry>
        </mxCell>
        <mxCell id="uAd7L6xz1dplvV16aioT-58" style="edgeStyle=orthogonalEdgeStyle;rounded=0;orthogonalLoop=1;jettySize=auto;html=1;entryX=0;entryY=0.5;entryDx=0;entryDy=0;strokeColor=#007FFF;strokeWidth=2;" parent="1" source="uAd7L6xz1dplvV16aioT-28" target="uAd7L6xz1dplvV16aioT-8" edge="1">
          <mxGeometry relative="1" as="geometry">
            <Array as="points">
              <mxPoint x="630" y="103" />
              <mxPoint x="360" y="103" />
              <mxPoint x="360" y="-15" />
            </Array>
          </mxGeometry>
        </mxCell>
        <mxCell id="uAd7L6xz1dplvV16aioT-84" value="&amp;nbsp;Passed Testing Checks&amp;nbsp;" style="edgeLabel;html=1;align=center;verticalAlign=middle;resizable=0;points=[];fontSize=12;labelBorderColor=#007FFF;spacingTop=0;spacingLeft=0;" parent="uAd7L6xz1dplvV16aioT-58" vertex="1" connectable="0">
          <mxGeometry x="-0.3582" relative="1" as="geometry">
            <mxPoint x="-25" as="offset" />
          </mxGeometry>
        </mxCell>
        <mxCell id="uAd7L6xz1dplvV16aioT-59" style="edgeStyle=orthogonalEdgeStyle;rounded=0;orthogonalLoop=1;jettySize=auto;html=1;entryX=0;entryY=0.75;entryDx=0;entryDy=0;strokeColor=#00FF00;strokeWidth=2;" parent="1" source="uAd7L6xz1dplvV16aioT-27" target="uAd7L6xz1dplvV16aioT-8" edge="1">
          <mxGeometry relative="1" as="geometry">
            <Array as="points">
              <mxPoint x="1010" y="80" />
              <mxPoint x="490" y="80" />
              <mxPoint x="490" y="10" />
            </Array>
          </mxGeometry>
        </mxCell>
        <mxCell id="uAd7L6xz1dplvV16aioT-85" value="&amp;nbsp;Passed Production Checks&amp;nbsp;" style="edgeLabel;html=1;align=center;verticalAlign=middle;resizable=0;points=[];fontSize=12;labelBorderColor=#00FF00;" parent="uAd7L6xz1dplvV16aioT-59" vertex="1" connectable="0">
          <mxGeometry x="0.1847" y="-4" relative="1" as="geometry">
            <mxPoint y="3" as="offset" />
          </mxGeometry>
        </mxCell>
        <mxCell id="uAd7L6xz1dplvV16aioT-56" value="CI&lt;span style=&quot;background-color: transparent; color: light-dark(rgb(0, 0, 0), rgb(255, 255, 255));&quot;&gt;&amp;nbsp;Workflow&lt;/span&gt;" style="rounded=0;whiteSpace=wrap;html=1;fillColor=none;dashed=1;verticalAlign=top;align=left;spacingLeft=4;fontSize=12;" parent="1" vertex="1">
          <mxGeometry x="147" y="148" width="980" height="65" as="geometry" />
        </mxCell>
        <mxCell id="uAd7L6xz1dplvV16aioT-47" value="CI&amp;nbsp;&lt;span style=&quot;background-color: transparent; color: light-dark(rgb(0, 0, 0), rgb(255, 255, 255));&quot;&gt;Initiation&lt;/span&gt;" style="rounded=0;whiteSpace=wrap;html=1;fillColor=none;dashed=1;verticalAlign=bottom;align=left;spacingLeft=4;fontSize=12;" parent="1" vertex="1">
          <mxGeometry x="147" y="271" width="980" height="61" as="geometry" />
        </mxCell>
      </root>
    </mxGraphModel>
  </diagram>
</mxfile>
